<?xml version="1.0" encoding="UTF-8" standalone="no"?>
<svg width="961px" height="510px" viewBox="0 0 961 510" version="1.1" xmlns="http://www.w3.org/2000/svg" xmlns:xlink="http://www.w3.org/1999/xlink" xmlns:sketch="http://www.bohemiancoding.com/sketch/ns">
    <!-- Generator: Sketch 3.1.1 (8761) - http://www.bohemiancoding.com/sketch -->
    <title>Artboard</title>
    <desc>Created with Sketch.</desc>
    <defs>
        <linearGradient x1="50%" y1="0%" x2="50%" y2="100%" id="linearGradient-1">
            <stop stop-color="#FFFFFF" offset="0%"></stop>
            <stop stop-color="#ACC39E" offset="100%"></stop>
        </linearGradient>
        <linearGradient x1="50%" y1="0%" x2="50%" y2="100%" id="linearGradient-2">
            <stop stop-color="#FFFFFF" offset="0%"></stop>
            <stop stop-color="#AAC19B" offset="100%"></stop>
        </linearGradient>
        <linearGradient x1="50%" y1="0%" x2="50%" y2="100%" id="linearGradient-3">
            <stop stop-color="#FFFFFF" offset="0%"></stop>
            <stop stop-color="#EFC98C" offset="100%"></stop>
        </linearGradient>
        <linearGradient x1="50%" y1="0%" x2="50%" y2="100%" id="linearGradient-4">
            <stop stop-color="#FFFFFF" offset="0%"></stop>
            <stop stop-color="#E6E6E6" offset="100%"></stop>
        </linearGradient>
        <linearGradient x1="50%" y1="0%" x2="50%" y2="100%" id="linearGradient-5">
            <stop stop-color="#FFFFFF" offset="0%"></stop>
            <stop stop-color="#E2BAE4" offset="100%"></stop>
        </linearGradient>
        <linearGradient x1="50%" y1="0%" x2="50%" y2="100%" id="linearGradient-6">
            <stop stop-color="#FFFFFF" offset="0%"></stop>
            <stop stop-color="#A2CACE" offset="100%"></stop>
        </linearGradient>
    </defs>
    <g id="Page-1" stroke="none" stroke-width="1" fill="none" fill-rule="evenodd" sketch:type="MSPage">
        <g id="Artboard" sketch:type="MSArtboardGroup">
            <g id="hasSubProgram-arrow" sketch:type="MSLayerGroup" transform="translate(280.500000, 303.000000) rotate(-90.000000) translate(-280.500000, -303.000000) translate(264.500000, 271.500000)" stroke="#000000">
                <path d="M3.87878788,11 C6.05445507,11 7.81818182,9.209139 7.81818182,7 C7.81818182,4.790861 6.05445507,3 3.87878788,3 C1.70312068,3 -0.0606060606,4.790861 -0.0606060606,7 C-0.0606060606,9.209139 1.70312068,11 3.87878788,11 Z" id="Oval-1" fill="#000000" sketch:type="MSShapeGroup"></path>
                <path d="M8.81049947,13.3690494 L15.1513317,0.492282385 L21.492164,13.3690494" id="Triangle-1" sketch:type="MSShapeGroup" transform="translate(15.151332, 6.930666) rotate(-91.000000) translate(-15.151332, -6.930666) "></path>
                <path d="M0,63 L32,63 L32,7 L0,7" id="Rectangle-1" sketch:type="MSShapeGroup"></path>
            </g>
            <g id="wasInformedBy-arrow" sketch:type="MSLayerGroup" transform="translate(550.000000, 122.500000) rotate(-90.000000) translate(-550.000000, -122.500000) translate(534.000000, 101.000000)" stroke="#000000">
                <path d="M3.87878788,11 C6.05445507,11 7.81818182,9.209139 7.81818182,7 C7.81818182,4.790861 6.05445507,3 3.87878788,3 C1.70312068,3 -0.0606060606,4.790861 -0.0606060606,7 C-0.0606060606,9.209139 1.70312068,11 3.87878788,11 Z" id="Oval-1" fill="#000000" sketch:type="MSShapeGroup"></path>
                <path d="M8.81049947,13.3690494 L15.1513317,0.492282385 L21.492164,13.3690494" id="Triangle-1" sketch:type="MSShapeGroup" transform="translate(15.151332, 6.930666) rotate(-91.000000) translate(-15.151332, -6.930666) "></path>
                <path d="M0,43 L32,43 L32,7 L0,7" id="Rectangle-1" sketch:type="MSShapeGroup"></path>
            </g>
            <g id="wasDerivedFromData-arrow" sketch:type="MSLayerGroup" transform="translate(808.000000, 143.000000)" stroke="#000000">
                <path d="M3.87878788,11 C6.05445507,11 7.81818182,9.209139 7.81818182,7 C7.81818182,4.790861 6.05445507,3 3.87878788,3 C1.70312068,3 -0.0606060606,4.790861 -0.0606060606,7 C-0.0606060606,9.209139 1.70312068,11 3.87878788,11 Z" id="Oval-1" fill="#000000" sketch:type="MSShapeGroup"></path>
                <path d="M8.81049947,13.3690494 L15.1513317,0.492282385 L21.492164,13.3690494" id="Triangle-1" sketch:type="MSShapeGroup" transform="translate(15.151332, 6.930666) rotate(-91.000000) translate(-15.151332, -6.930666) "></path>
                <path d="M0,29 L32,29 L32,7 L0,7" id="Rectangle-1" sketch:type="MSShapeGroup"></path>
            </g>
            <g id="wasInformedBy-arrow-2" sketch:type="MSLayerGroup" transform="translate(504.500000, 122.500000) rotate(-90.000000) translate(-504.500000, -122.500000) translate(488.500000, 101.000000)" stroke="#000000">
                <path d="M3.87878788,11 C6.05445507,11 7.81818182,9.209139 7.81818182,7 C7.81818182,4.790861 6.05445507,3 3.87878788,3 C1.70312068,3 -0.0606060606,4.790861 -0.0606060606,7 C-0.0606060606,9.209139 1.70312068,11 3.87878788,11 Z" id="Oval-1" fill="#000000" sketch:type="MSShapeGroup"></path>
                <path d="M8.81049947,13.3690494 L15.1513317,0.492282385 L21.492164,13.3690494" id="Triangle-1" sketch:type="MSShapeGroup" transform="translate(15.151332, 6.930666) rotate(-91.000000) translate(-15.151332, -6.930666) "></path>
                <path d="M0,43 L32,43 L32,7 L0,7" id="Rectangle-1" sketch:type="MSShapeGroup"></path>
            </g>
            <g id="wasDerivedFrom-arrow" sketch:type="MSLayerGroup" transform="translate(322.500000, 374.000000) rotate(90.000000) translate(-322.500000, -374.000000) translate(306.500000, 355.000000)" stroke="#000000">
                <path d="M3.87878788,11 C6.05445507,11 7.81818182,9.209139 7.81818182,7 C7.81818182,4.790861 6.05445507,3 3.87878788,3 C1.70312068,3 -0.0606060606,4.790861 -0.0606060606,7 C-0.0606060606,9.209139 1.70312068,11 3.87878788,11 Z" id="Oval-1" fill="#000000" sketch:type="MSShapeGroup"></path>
                <path d="M8.81049947,13.3690494 L15.1513317,0.492282385 L21.492164,13.3690494" id="Triangle-1" sketch:type="MSShapeGroup" transform="translate(15.151332, 6.930666) rotate(-91.000000) translate(-15.151332, -6.930666) "></path>
                <path d="M0,38 L32,38 L32,7 L0,7" id="Rectangle-1" sketch:type="MSShapeGroup"></path>
            </g>
            <g id="usedChannel-arrow" sketch:type="MSLayerGroup" transform="translate(752.000000, 230.000000)" stroke="#000000">
                <path d="M6.5,79.5 L6.5,-52.594663" id="Line-2" stroke-linecap="square" sketch:type="MSShapeGroup"></path>
                <path d="M6.5,88.6212121 C8.6756672,88.6212121 10.4393939,86.8303511 10.4393939,84.6212121 C10.4393939,82.4120731 8.6756672,80.6212121 6.5,80.6212121 C4.3243328,80.6212121 2.56060606,82.4120731 2.56060606,84.6212121 C2.56060606,86.8303511 4.3243328,88.6212121 6.5,88.6212121 Z" id="Oval-1" fill="#000000" sketch:type="MSShapeGroup" transform="translate(6.500000, 84.621212) rotate(-90.000000) translate(-6.500000, -84.621212) "></path>
                <path d="M0.0898336502,79.7870518 L6.4306659,66.9102848 L12.7714981,79.7870518" id="Triangle-1" sketch:type="MSShapeGroup" transform="translate(6.430666, 73.348668) rotate(-181.000000) translate(-6.430666, -73.348668) "></path>
            </g>
            <g id="hasDefaultParam-arrow" sketch:type="MSLayerGroup" transform="translate(655.293322, 219.676951) rotate(242.000000) translate(-655.293322, -219.676951) translate(648.793322, 132.676951)" stroke="#000000">
                <path d="M6.5,164.5 L6.5,0.914950311" id="Line-2" stroke-linecap="square" sketch:type="MSShapeGroup"></path>
                <path d="M6.5,173.621212 C8.6756672,173.621212 10.4393939,171.830351 10.4393939,169.621212 C10.4393939,167.412073 8.6756672,165.621212 6.5,165.621212 C4.3243328,165.621212 2.56060606,167.412073 2.56060606,169.621212 C2.56060606,171.830351 4.3243328,173.621212 6.5,173.621212 Z" id="Oval-1" fill="#000000" sketch:type="MSShapeGroup" transform="translate(6.500000, 169.621212) rotate(-90.000000) translate(-6.500000, -169.621212) "></path>
                <path d="M0.0898336502,164.787052 L6.4306659,151.910285 L12.7714981,164.787052" id="Triangle-1" sketch:type="MSShapeGroup" transform="translate(6.430666, 158.348668) rotate(-181.000000) translate(-6.430666, -158.348668) "></path>
            </g>
            <g id="controlledBy-arrow" sketch:type="MSLayerGroup" transform="translate(184.500000, 329.500000) rotate(90.000000) translate(-184.500000, -329.500000) translate(178.000000, 264.000000)" stroke="#000000">
                <path d="M6.5,121.5 L6.5,0.5" id="Line-2" stroke-linecap="square" sketch:type="MSShapeGroup"></path>
                <path d="M6.5,130.621212 C8.6756672,130.621212 10.4393939,128.830351 10.4393939,126.621212 C10.4393939,124.412073 8.6756672,122.621212 6.5,122.621212 C4.3243328,122.621212 2.56060606,124.412073 2.56060606,126.621212 C2.56060606,128.830351 4.3243328,130.621212 6.5,130.621212 Z" id="Oval-1" fill="#000000" sketch:type="MSShapeGroup" transform="translate(6.500000, 126.621212) rotate(-90.000000) translate(-6.500000, -126.621212) "></path>
                <path d="M0.0898336502,121.787052 L6.4306659,108.910285 L12.7714981,121.787052" id="Triangle-1" sketch:type="MSShapeGroup" transform="translate(6.430666, 115.348668) rotate(-181.000000) translate(-6.430666, -115.348668) "></path>
            </g>
            <g id="controls-arrow" sketch:type="MSLayerGroup" transform="translate(183.000000, 348.000000) rotate(270.000000) translate(-183.000000, -348.000000) translate(176.500000, 283.000000)" stroke="#000000">
                <path d="M6.5,120.5 L6.5,0.5" id="Line-2" stroke-linecap="square" sketch:type="MSShapeGroup"></path>
                <path d="M6.5,129.621212 C8.6756672,129.621212 10.4393939,127.830351 10.4393939,125.621212 C10.4393939,123.412073 8.6756672,121.621212 6.5,121.621212 C4.3243328,121.621212 2.56060606,123.412073 2.56060606,125.621212 C2.56060606,127.830351 4.3243328,129.621212 6.5,129.621212 Z" id="Oval-1" fill="#000000" sketch:type="MSShapeGroup" transform="translate(6.500000, 125.621212) rotate(-90.000000) translate(-6.500000, -125.621212) "></path>
                <path d="M0.0898336502,120.787052 L6.4306659,107.910285 L12.7714981,120.787052" id="Triangle-1" sketch:type="MSShapeGroup" transform="translate(6.430666, 114.348668) rotate(-181.000000) translate(-6.430666, -114.348668) "></path>
            </g>
            <g id="hasOutPort-arrow" sketch:type="MSLayerGroup" transform="translate(416.609224, 379.438090) rotate(292.000000) translate(-416.609224, -379.438090) translate(410.109224, 314.938090)" stroke="#000000">
                <path d="M6.5,119.5 L6.5,-10.0427505" id="Line-2" stroke-linecap="square" sketch:type="MSShapeGroup"></path>
                <path d="M6.5,128.621212 C8.6756672,128.621212 10.4393939,126.830351 10.4393939,124.621212 C10.4393939,122.412073 8.6756672,120.621212 6.5,120.621212 C4.3243328,120.621212 2.56060606,122.412073 2.56060606,124.621212 C2.56060606,126.830351 4.3243328,128.621212 6.5,128.621212 Z" id="Oval-1" fill="#000000" sketch:type="MSShapeGroup" transform="translate(6.500000, 124.621212) rotate(-90.000000) translate(-6.500000, -124.621212) "></path>
                <path d="M0.0898336502,119.787052 L6.4306659,106.910285 L12.7714981,119.787052" id="Triangle-1" sketch:type="MSShapeGroup" transform="translate(6.430666, 113.348668) rotate(-181.000000) translate(-6.430666, -113.348668) "></path>
            </g>
            <g id="inputsFrom-arrow" sketch:type="MSLayerGroup" transform="translate(646.581722, 320.610990) rotate(289.000000) translate(-646.581722, -320.610990) translate(640.081722, 256.110990)" stroke="#000000">
                <path d="M6.5,119.5 L6.5,-8.66818881" id="Line-2" stroke-linecap="square" sketch:type="MSShapeGroup"></path>
                <path d="M6.5,128.621212 C8.6756672,128.621212 10.4393939,126.830351 10.4393939,124.621212 C10.4393939,122.412073 8.6756672,120.621212 6.5,120.621212 C4.3243328,120.621212 2.56060606,122.412073 2.56060606,124.621212 C2.56060606,126.830351 4.3243328,128.621212 6.5,128.621212 Z" id="Oval-1" fill="#000000" sketch:type="MSShapeGroup" transform="translate(6.500000, 124.621212) rotate(-90.000000) translate(-6.500000, -124.621212) "></path>
                <path d="M0.0898336502,119.787052 L6.4306659,106.910285 L12.7714981,119.787052" id="Triangle-1" sketch:type="MSShapeGroup" transform="translate(6.430666, 113.348668) rotate(-181.000000) translate(-6.430666, -113.348668) "></path>
            </g>
            <g id="outputsTo-arrow" sketch:type="MSLayerGroup" transform="translate(675.590461, 382.150770) rotate(250.000000) translate(-675.590461, -382.150770) translate(669.090461, 317.650770)" stroke="#000000">
                <path d="M6.5,119.5 L6.5,-39.7313731" id="Line-2" stroke-linecap="square" sketch:type="MSShapeGroup"></path>
                <path d="M6.5,128.621212 C8.6756672,128.621212 10.4393939,126.830351 10.4393939,124.621212 C10.4393939,122.412073 8.6756672,120.621212 6.5,120.621212 C4.3243328,120.621212 2.56060606,122.412073 2.56060606,124.621212 C2.56060606,126.830351 4.3243328,128.621212 6.5,128.621212 Z" id="Oval-1" fill="#000000" sketch:type="MSShapeGroup" transform="translate(6.500000, 124.621212) rotate(-90.000000) translate(-6.500000, -124.621212) "></path>
                <path d="M0.0898336502,119.787052 L6.4306659,106.910285 L12.7714981,119.787052" id="Triangle-1" sketch:type="MSShapeGroup" transform="translate(6.430666, 113.348668) rotate(-181.000000) translate(-6.430666, -113.348668) "></path>
            </g>
            <g id="outputsFrom-arrow" sketch:type="MSLayerGroup" transform="translate(639.590461, 380.683006) rotate(70.000000) translate(-639.590461, -380.683006) translate(633.090461, 316.183006)" stroke="#000000">
                <path d="M6.5,119.5 L6.5,-39.7313731" id="Line-2" stroke-linecap="square" sketch:type="MSShapeGroup"></path>
                <path d="M6.5,128.621212 C8.6756672,128.621212 10.4393939,126.830351 10.4393939,124.621212 C10.4393939,122.412073 8.6756672,120.621212 6.5,120.621212 C4.3243328,120.621212 2.56060606,122.412073 2.56060606,124.621212 C2.56060606,126.830351 4.3243328,128.621212 6.5,128.621212 Z" id="Oval-1" fill="#000000" sketch:type="MSShapeGroup" transform="translate(6.500000, 124.621212) rotate(-90.000000) translate(-6.500000, -124.621212) "></path>
                <path d="M0.0898336502,119.787052 L6.4306659,106.910285 L12.7714981,119.787052" id="Triangle-1" sketch:type="MSShapeGroup" transform="translate(6.430666, 113.348668) rotate(-181.000000) translate(-6.430666, -113.348668) "></path>
            </g>
            <g id="inputsTo-arrow" sketch:type="MSLayerGroup" transform="translate(639.380757, 296.979041) rotate(109.000000) translate(-639.380757, -296.979041) translate(632.880757, 232.479041)" stroke="#000000">
                <path d="M6.5,119.5 L6.5,-11.5800517" id="Line-2" stroke-linecap="square" sketch:type="MSShapeGroup"></path>
                <path d="M6.5,128.621212 C8.6756672,128.621212 10.4393939,126.830351 10.4393939,124.621212 C10.4393939,122.412073 8.6756672,120.621212 6.5,120.621212 C4.3243328,120.621212 2.56060606,122.412073 2.56060606,124.621212 C2.56060606,126.830351 4.3243328,128.621212 6.5,128.621212 Z" id="Oval-1" fill="#000000" sketch:type="MSShapeGroup" transform="translate(6.500000, 124.621212) rotate(-90.000000) translate(-6.500000, -124.621212) "></path>
                <path d="M0.0898336502,119.787052 L6.4306659,106.910285 L12.7714981,119.787052" id="Triangle-1" sketch:type="MSShapeGroup" transform="translate(6.430666, 113.348668) rotate(-181.000000) translate(-6.430666, -113.348668) "></path>
            </g>
            <g id="wasAssociatedWith-arrow" sketch:type="MSLayerGroup" transform="translate(119.000000, 151.000000)" stroke="#000000">
                <path d="M3.87878788,11 C6.05445507,11 7.81818182,9.209139 7.81818182,7 C7.81818182,4.790861 6.05445507,3 3.87878788,3 C1.70312068,3 -0.0606060606,4.790861 -0.0606060606,7 C-0.0606060606,9.209139 1.70312068,11 3.87878788,11 Z" id="Oval-1" fill="#000000" sketch:type="MSShapeGroup"></path>
                <path d="M8.81049947,13.3690494 L15.1513317,0.492282385 L21.492164,13.3690494" id="Triangle-1" sketch:type="MSShapeGroup" transform="translate(15.151332, 6.930666) rotate(-91.000000) translate(-15.151332, -6.930666) "></path>
                <path d="M359.500336,7 L0,7" id="Rectangle-1" sketch:type="MSShapeGroup"></path>
            </g>
            <g id="hadMember-arrow" sketch:type="MSLayerGroup" transform="translate(752.000000, 57.000000)" stroke="#000000">
                <path d="M10.8418329,78.0909091 C10.8418329,75.9152419 9.05097188,74.1515152 6.84183288,74.1515152 C4.63269389,74.1515152 2.84183288,75.9152419 2.84183288,78.0909091 C2.84183288,80.2665763 4.63269389,82.030303 6.84183288,82.030303 C9.05097188,82.030303 10.8418329,80.2665763 10.8418329,78.0909091 Z" id="Oval-1" fill="#000000" sketch:type="MSShapeGroup"></path>
                <path d="M13,60.2702996 L6.88486407,73.2557682 L0.320266989,60.4916251" id="Triangle-1" sketch:type="MSShapeGroup"></path>
                <path d="M6.84183288,0.667794199 L6.84183288,81.969697" id="Rectangle-1" sketch:type="MSShapeGroup"></path>
            </g>
            <g id="qualifiedAssociation-arrow" sketch:type="MSLayerGroup" transform="translate(407.189327, 197.850274) rotate(-22.000000) translate(-407.189327, -197.850274) translate(344.689327, 191.350274)" stroke="#000000">
                <path d="M3.87878788,11 C6.05445507,11 7.81818182,9.209139 7.81818182,7 C7.81818182,4.790861 6.05445507,3 3.87878788,3 C1.70312068,3 -0.0606060606,4.790861 -0.0606060606,7 C-0.0606060606,9.209139 1.70312068,11 3.87878788,11 Z" id="Oval-1" fill="#000000" sketch:type="MSShapeGroup"></path>
                <path d="M8.81049947,13.3690494 L15.1513317,0.492282385 L21.492164,13.3690494" id="Triangle-1" sketch:type="MSShapeGroup" transform="translate(15.151332, 6.930666) rotate(-91.000000) translate(-15.151332, -6.930666) "></path>
                <path d="M139.79628,7 L0,7" id="Rectangle-1" sketch:type="MSShapeGroup"></path>
            </g>
            <g id="wasAttributedTo-arrow" sketch:type="MSLayerGroup" transform="translate(192.075983, 417.182747) rotate(-40.000000) translate(-192.075983, -417.182747) translate(97.575983, 410.682747)" stroke="#000000">
                <path d="M3.87878788,11 C6.05445507,11 7.81818182,9.209139 7.81818182,7 C7.81818182,4.790861 6.05445507,3 3.87878788,3 C1.70312068,3 -0.0606060606,4.790861 -0.0606060606,7 C-0.0606060606,9.209139 1.70312068,11 3.87878788,11 Z" id="Oval-1" fill="#000000" sketch:type="MSShapeGroup"></path>
                <path d="M8.81049947,13.3690494 L15.1513317,0.492282385 L21.492164,13.3690494" id="Triangle-1" sketch:type="MSShapeGroup" transform="translate(15.151332, 6.930666) rotate(-91.000000) translate(-15.151332, -6.930666) "></path>
                <path d="M188.98613,7 L4.4408921e-16,7" id="Rectangle-1" sketch:type="MSShapeGroup"></path>
            </g>
            <g id="qualifiedAssociation-4" sketch:type="MSLayerGroup" transform="translate(184.064380, 191.956721) rotate(20.000000) translate(-184.064380, -191.956721) translate(115.564380, 185.456721)" stroke="#000000">
                <path d="M3.87878788,11 C6.05445507,11 7.81818182,9.209139 7.81818182,7 C7.81818182,4.790861 6.05445507,3 3.87878788,3 C1.70312068,3 -0.0606060606,4.790861 -0.0606060606,7 C-0.0606060606,9.209139 1.70312068,11 3.87878788,11 Z" id="Oval-1" fill="#000000" sketch:type="MSShapeGroup"></path>
                <path d="M8.81049947,13.3690494 L15.1513317,0.492282385 L21.492164,13.3690494" id="Triangle-1" sketch:type="MSShapeGroup" transform="translate(15.151332, 6.930666) rotate(-91.000000) translate(-15.151332, -6.930666) "></path>
                <path d="M136.162262,7 L-8.52651283e-14,7" id="Rectangle-1" sketch:type="MSShapeGroup"></path>
            </g>
            <g id="User-Box-+-User" sketch:type="MSLayerGroup" transform="translate(18.000000, 140.000000)">
                <rect id="User-Box" stroke="#000000" fill="url(#linearGradient-1)" sketch:type="MSShapeGroup" x="0" y="0" width="100" height="37"></rect>
                <text id="User" sketch:type="MSTextLayer" font-family="Cambria" font-size="14" font-weight="normal" fill="#000000">
                    <tspan x="36" y="22">User</tspan>
                </text>
            </g>
            <g id="Author-Box-+-Author" sketch:type="MSLayerGroup" transform="translate(18.000000, 456.000000)">
                <rect id="Author-Box" stroke="#000000" fill="url(#linearGradient-2)" sketch:type="MSShapeGroup" x="0" y="0" width="100" height="37"></rect>
                <text id="Author" sketch:type="MSTextLayer" font-family="Cambria" font-size="14" font-weight="normal" fill="#000000">
                    <tspan x="29" y="22">Author</tspan>
                </text>
            </g>
            <g id="Execution-Box-+-Execution" sketch:type="MSLayerGroup" transform="translate(478.000000, 139.000000)">
                <rect id="Execution-Box" stroke="#000000" fill="url(#linearGradient-3)" sketch:type="MSShapeGroup" x="0" y="0" width="100" height="37"></rect>
                <text id="Execution" sketch:type="MSTextLayer" font-family="Cambria" font-size="14" font-weight="normal" fill="#000000">
                    <tspan x="20" y="22.5">Execution</tspan>
                </text>
            </g>
            <g id="Association-Box-+-Association" sketch:type="MSLayerGroup" transform="translate(248.000000, 201.000000)">
                <rect id="Association-Box" stroke="#000000" fill="url(#linearGradient-4)" sketch:type="MSShapeGroup" x="0" y="0" width="100" height="37"></rect>
                <text id="Association" sketch:type="MSTextLayer" font-family="Cambria" font-size="14" font-weight="normal" sketch:alignment="middle" fill="#000000">
                    <tspan x="15.5229492" y="22.7675781">Association</tspan>
                </text>
            </g>
            <g id="Data-Box-+-Data" sketch:type="MSLayerGroup" transform="translate(708.000000, 139.000000)">
                <rect id="Data-Box" stroke="#000000" fill="url(#linearGradient-5)" sketch:type="MSShapeGroup" x="0" y="0" width="100" height="37"></rect>
                <text id="Data" sketch:type="MSTextLayer" font-family="Cambria" font-size="14" font-weight="normal" fill="#000000">
                    <tspan x="36" y="22.7675781">Data</tspan>
                </text>
            </g>
            <g id="Collection-Box-+-Collection" sketch:type="MSLayerGroup" transform="translate(708.000000, 19.000000)">
                <rect id="Collection-Box" stroke="#000000" fill="url(#linearGradient-5)" sketch:type="MSShapeGroup" x="0" y="0" width="100" height="37"></rect>
                <text id="Collection" sketch:type="MSTextLayer" font-family="Cambria" font-size="14" font-weight="normal" fill="#000000">
                    <tspan x="20" y="21.7675781">Collection</tspan>
                </text>
            </g>
            <g id="Controller-Box-+-Controller" sketch:type="MSLayerGroup" transform="translate(18.000000, 320.000000)">
                <rect id="Controller-Box" stroke="#000000" fill="url(#linearGradient-6)" sketch:type="MSShapeGroup" x="0" y="0" width="100" height="37"></rect>
                <text id="Controller" sketch:type="MSTextLayer" font-family="Cambria" font-size="14" font-weight="normal" sketch:alignment="middle" fill="#000000">
                    <tspan x="19.9536133" y="23">Controller</tspan>
                </text>
            </g>
            <g id="Program-Box-+-Program" sketch:type="MSLayerGroup" transform="translate(248.000000, 320.000000)">
                <rect id="Program-Box" stroke="#000000" fill="url(#linearGradient-6)" sketch:type="MSShapeGroup" x="0" y="0" width="100" height="37"></rect>
                <text id="Program" sketch:type="MSTextLayer" font-family="Cambria" font-size="14" font-weight="normal" fill="#000000">
                    <tspan x="24" y="22">Program</tspan>
                </text>
            </g>
            <g id="Workflow-Box-+-Workflow" sketch:type="MSLayerGroup" transform="translate(248.000000, 456.000000)">
                <rect id="Workflow-Box" stroke="#000000" fill="url(#linearGradient-6)" sketch:type="MSShapeGroup" x="0" y="0" width="100" height="37"></rect>
                <text id="Workflow" sketch:type="MSTextLayer" font-family="Cambria" font-size="14" font-weight="normal" fill="#000000">
                    <tspan x="21" y="22">Workflow</tspan>
                </text>
            </g>
            <g id="Container-Box-+-Container" sketch:type="MSLayerGroup" transform="translate(708.000000, 320.000000)">
                <rect id="Container-Box" stroke="#000000" fill="url(#linearGradient-6)" sketch:type="MSShapeGroup" x="0" y="0" width="100" height="37"></rect>
                <text id="Location" sketch:type="MSTextLayer" font-family="Cambria" font-size="14" font-weight="normal" sketch:alignment="middle" fill="#000000">
                    <tspan x="24.0883789" y="22">Location</tspan>
                </text>
            </g>
            <g id="InputPort-Box-+-InputPort" sketch:type="MSLayerGroup" transform="translate(478.000000, 260.000000)">
                <rect id="InputPort-Box" stroke="#000000" fill="url(#linearGradient-6)" sketch:type="MSShapeGroup" x="0" y="0" width="100" height="37"></rect>
                <text id="InputPort" sketch:type="MSTextLayer" font-family="Cambria" font-size="14" font-weight="normal" fill="#000000">
                    <tspan x="21" y="22">InputPort</tspan>
                </text>
            </g>
            <g id="OutputPort-Box-+-OutputPort" sketch:type="MSLayerGroup" transform="translate(478.000000, 381.000000)">
                <rect id="OutputPort-Box" stroke="#000000" fill="url(#linearGradient-6)" sketch:type="MSShapeGroup" x="0" y="0" width="100" height="37"></rect>
                <text id="OutputPort" sketch:type="MSTextLayer" font-family="Cambria" font-size="14" font-weight="normal" fill="#000000">
                    <tspan x="16" y="22">OutputPort</tspan>
                </text>
            </g>
            <text id="inputsFrom" sketch:type="MSTextLayer" font-family="Cambria" font-size="12" font-weight="normal" fill="#000000">
                <tspan x="581" y="330.78325">inputsFrom</tspan>
            </text>
            <text id="locatedAt" sketch:type="MSTextLayer" font-family="Cambria" font-size="12" font-weight="normal" fill="#000000">
                <tspan x="763" y="246">locatedAt</tspan>
            </text>
            <text id="hasInPort" sketch:type="MSTextLayer" font-family="Cambria" font-size="12" font-weight="normal" fill="#000000">
                <tspan x="370" y="291">hasInPort</tspan>
            </text>
            <text id="isPartOf" sketch:type="MSTextLayer" font-family="Cambria" font-size="12" font-weight="normal" fill="#000000">
                <tspan x="483" y="97">isPartOf</tspan>
            </text>
            <text id="hasDefaultParam" sketch:type="MSTextLayer" font-family="Cambria" font-size="12" font-weight="normal" fill="#000000">
                <tspan x="559" y="219.017531">hasDefaultParam</tspan>
            </text>
            <text id="outputsTo" sketch:type="MSTextLayer" font-family="Cambria" font-size="12" font-weight="normal" fill="#000000">
                <tspan x="643" y="407">outputsTo</tspan>
            </text>
            <text id="hasOutPort" sketch:type="MSTextLayer" font-family="Cambria" font-size="12" font-weight="normal" fill="#000000">
                <tspan x="387" y="358">hasOutPort</tspan>
            </text>
            <text id="inputsTo" sketch:type="MSTextLayer" font-family="Cambria" font-size="12" font-weight="normal" fill="#000000">
                <tspan x="640.99237" y="290.199219">inputsTo</tspan>
            </text>
            <text id="outputsFrom" sketch:type="MSTextLayer" font-family="Cambria" font-size="12" font-weight="normal" fill="#000000">
                <tspan x="584" y="367.256007">outputsFrom</tspan>
            </text>
            <text id="«hadMember»" sketch:type="MSTextLayer" font-family="Cambria" font-size="12" font-weight="normal" fill="#000000">
                <tspan x="766" y="101">«</tspan>
                <tspan x="771.853516" y="101">hadMember</tspan>
                <tspan x="833.998047" y="101" font-style="italic">»</tspan>
            </text>
            <text id="«wasGeneratedBy»" sketch:type="MSTextLayer" font-family="Cambria" font-size="12" font-weight="normal" fill="#000000">
                <tspan x="598.00763" y="180">«</tspan>
                <tspan x="603.861146" y="180">wasGeneratedBy</tspan>
                <tspan x="690.029114" y="180" font-style="italic">»</tspan>
            </text>
            <text id="«wasDerivedFrom»" sketch:type="MSTextLayer" font-family="Cambria" font-size="12" font-weight="normal" fill="#000000">
                <tspan x="847.00763" y="163">«</tspan>
                <tspan x="852.861146" y="163">wasDerivedFrom</tspan>
                <tspan x="940.464661" y="163" font-style="italic">»</tspan>
            </text>
            <text id="«used»" sketch:type="MSTextLayer" font-family="Cambria" font-size="12" font-weight="normal" fill="#000000">
                <tspan x="632" y="141">«</tspan>
                <tspan x="637.853516" y="141">used</tspan>
                <tspan x="662.146484" y="141" font-style="italic">»</tspan>
            </text>
            <text id="«wasAttributedTo»" sketch:type="MSTextLayer" font-family="Cambria" font-size="12" font-weight="normal" fill="#000000">
                <tspan x="85" y="417">«</tspan>
                <tspan x="90.8535156" y="417">wasAttributedTo</tspan>
                <tspan x="176.828125" y="417" font-style="italic">»</tspan>
            </text>
            <text id="«wasDerivedFrom»" sketch:type="MSTextLayer" font-family="Cambria" font-size="12" font-weight="normal" fill="#000000">
                <tspan x="290" y="417">«</tspan>
                <tspan x="295.853516" y="417">wasDerivedFrom</tspan>
                <tspan x="383.457031" y="417" font-style="italic">»</tspan>
            </text>
            <text id="hasSubProgram" sketch:type="MSTextLayer" font-family="Cambria" font-size="12" font-weight="normal" fill="#000000">
                <tspan x="231" y="281">hasSubProgram</tspan>
            </text>
            <text id="«qualifiedAssociatio" sketch:type="MSTextLayer" font-family="Cambria" font-size="12" font-weight="normal" fill="#000000">
                <tspan x="317.535325" y="182">«</tspan>
                <tspan x="323.388841" y="182">qualifiedAssociation</tspan>
                <tspan x="427.609544" y="182" font-style="italic">»</tspan>
            </text>
            <text id="«wasAssociatedWith»" sketch:type="MSTextLayer" font-family="Cambria" font-size="12" font-weight="normal" fill="#000000">
                <tspan x="242" y="150.410667">«</tspan>
                <tspan x="247.853516" y="150.410667">wasAssociatedWith</tspan>
                <tspan x="348.119141" y="150.410667" font-style="italic">»</tspan>
            </text>
            <text id="«hadPlan»" sketch:type="MSTextLayer" font-family="Cambria" font-size="12" font-weight="normal" fill="#000000">
                <tspan x="332" y="272">«</tspan>
                <tspan x="337.853516" y="272">hadPlan</tspan>
                <tspan x="379.619141" y="272" font-style="italic">»</tspan>
            </text>
            <text id="«agent»" sketch:type="MSTextLayer" font-family="Cambria" font-size="12" font-weight="normal" fill="#000000">
                <tspan x="162" y="210">«</tspan>
                <tspan x="167.853516" y="210">agent</tspan>
                <tspan x="196.253906" y="210" font-style="italic">»</tspan>
            </text>
            <text id="controlledBy" sketch:type="MSTextLayer" font-family="Cambria" font-size="12" font-weight="normal" fill="#000000">
                <tspan x="151" y="324">controlledBy</tspan>
            </text>
            <text id="controls" sketch:type="MSTextLayer" font-family="Cambria" font-size="12" font-weight="normal" fill="#000000">
                <tspan x="161" y="361">controls</tspan>
            </text>
            <text id="[*]" sketch:type="MSTextLayer" font-family="Cambria" font-size="12" font-weight="normal" fill="#4A4A4A">
                <tspan x="131" y="366">[*]</tspan>
            </text>
            <text id="[*]-3" sketch:type="MSTextLayer" font-family="Cambria" font-size="12" font-weight="normal" fill="#4A4A4A">
                <tspan x="144" y="472">[*]</tspan>
            </text>
            <text id="[*]-4" sketch:type="MSTextLayer" font-family="Cambria" font-size="12" font-weight="normal" fill="#4A4A4A">
                <tspan x="254" y="379">[*]</tspan>
            </text>
            <text id="[*]-5" sketch:type="MSTextLayer" font-family="Cambria" font-size="12" font-weight="normal" fill="#4A4A4A">
                <tspan x="343" y="369">[*]</tspan>
            </text>
            <text id="[*]-7" sketch:type="MSTextLayer" font-family="Cambria" font-size="12" font-weight="normal" fill="#4A4A4A">
                <tspan x="440" y="379">[*]</tspan>
            </text>
            <text id="[*]-8" sketch:type="MSTextLayer" font-family="Cambria" font-size="12" font-weight="normal" fill="#4A4A4A">
                <tspan x="440" y="272">[*]</tspan>
            </text>
            <text id="[*]-2" sketch:type="MSTextLayer" font-family="Cambria" font-size="12" font-weight="normal" fill="#4A4A4A">
                <tspan x="131" y="317">[*]</tspan>
            </text>
            <text id="[1]" sketch:type="MSTextLayer" font-family="Cambria" font-size="12" font-weight="normal" fill="#4A4A4A">
                <tspan x="143" y="194">[1]</tspan>
            </text>
            <text id="[1]-9" sketch:type="MSTextLayer" font-family="Cambria" font-size="12" font-weight="normal" fill="#4A4A4A">
                <tspan x="143" y="151">[1]</tspan>
            </text>
            <text id="[*]" sketch:type="MSTextLayer" font-family="Cambria" font-size="12" font-weight="normal" fill="#4A4A4A">
                <tspan x="229" y="226">[*]</tspan>
            </text>
            <text id="[*]-11" sketch:type="MSTextLayer" font-family="Cambria" font-size="12" font-weight="normal" fill="#4A4A4A">
                <tspan x="459.99237" y="151">[*]</tspan>
            </text>
            <text id="[*]-12" sketch:type="MSTextLayer" font-family="Cambria" font-size="12" font-weight="normal" fill="#4A4A4A">
                <tspan x="544" y="119">[*]</tspan>
            </text>
            <text id="[*]-13" sketch:type="MSTextLayer" font-family="Cambria" font-size="12" font-weight="normal" fill="#4A4A4A">
                <tspan x="574" y="119">[*]</tspan>
            </text>
            <text id="[*]-15" sketch:type="MSTextLayer" font-family="Cambria" font-size="12" font-weight="normal" fill="#4A4A4A">
                <tspan x="684" y="137">[*]</tspan>
            </text>
            <text id="[*]-17" sketch:type="MSTextLayer" font-family="Cambria" font-size="12" font-weight="normal" fill="#4A4A4A">
                <tspan x="768" y="123">[*]</tspan>
            </text>
            <text id="[*]-18" sketch:type="MSTextLayer" font-family="Cambria" font-size="12" font-weight="normal" fill="#4A4A4A">
                <tspan x="815.99237" y="139">[*]</tspan>
            </text>
            <text id="[*]-19" sketch:type="MSTextLayer" font-family="Cambria" font-size="12" font-weight="normal" fill="#4A4A4A">
                <tspan x="815.99237" y="190">[*]</tspan>
            </text>
            <text id="[*]-20" sketch:type="MSTextLayer" font-family="Cambria" font-size="12" font-weight="normal" fill="#4A4A4A">
                <tspan x="764.99237" y="190">[*]</tspan>
            </text>
            <text id="[*]-21" sketch:type="MSTextLayer" font-family="Cambria" font-size="12" font-weight="normal" fill="#4A4A4A">
                <tspan x="706.99237" y="386">[*]</tspan>
            </text>
            <text id="[*]-22" sketch:type="MSTextLayer" font-family="Cambria" font-size="12" font-weight="normal" fill="#4A4A4A">
                <tspan x="675.5" y="355">[*]</tspan>
            </text>
            <text id="[*]-23" sketch:type="MSTextLayer" font-family="Cambria" font-size="12" font-weight="normal" fill="#4A4A4A">
                <tspan x="670" y="324">[*]</tspan>
            </text>
            <text id="[*]-24" sketch:type="MSTextLayer" font-family="Cambria" font-size="12" font-weight="normal" fill="#4A4A4A">
                <tspan x="695.99237" y="309">[*]</tspan>
            </text>
            <text id="[1]" sketch:type="MSTextLayer" font-family="Cambria" font-size="12" font-weight="normal" fill="#4A4A4A">
                <tspan x="601.99237" y="300.800781">[1]</tspan>
            </text>
            <text id="[1]-14" sketch:type="MSTextLayer" font-family="Cambria" font-size="12" font-weight="normal" fill="#4A4A4A">
                <tspan x="601.99237" y="275">[1]</tspan>
            </text>
            <text id="[0..1]" sketch:type="MSTextLayer" font-family="Cambria" font-size="12" font-weight="normal" fill="#4A4A4A">
                <tspan x="766" y="78">[0..1]</tspan>
            </text>
            <text id="[0..1]-3" sketch:type="MSTextLayer" font-family="Cambria" font-size="12" font-weight="normal" fill="#4A4A4A">
                <tspan x="664" y="195">[0..1]</tspan>
            </text>
            <text id="[0..1]-4" sketch:type="MSTextLayer" font-family="Cambria" font-size="12" font-weight="normal" fill="#4A4A4A">
                <tspan x="558" y="251">[0..1]</tspan>
            </text>
            <text id="[0..1]-2" sketch:type="MSTextLayer" font-family="Cambria" font-size="12" font-weight="normal" fill="#4A4A4A">
                <tspan x="766" y="308">[0..1]</tspan>
            </text>
            <text id="[1]" sketch:type="MSTextLayer" font-family="Cambria" font-size="12" font-weight="normal" fill="#4A4A4A">
                <tspan x="450" y="118.5">[1]</tspan>
            </text>
            <text id="[1]-10" sketch:type="MSTextLayer" font-family="Cambria" font-size="12" font-weight="normal" fill="#4A4A4A">
                <tspan x="586.00763" y="137.5">[1]</tspan>
            </text>
            <text id="[*]-16" sketch:type="MSTextLayer" font-family="Cambria" font-size="12" font-weight="normal" fill="#4A4A4A">
                <tspan x="666" y="161">[*]</tspan>
            </text>
            <text id="[1]-11" sketch:type="MSTextLayer" font-family="Cambria" font-size="12" font-weight="normal" fill="#4A4A4A">
                <tspan x="606" y="161.5">[1]</tspan>
            </text>
            <text id="[*]-14" sketch:type="MSTextLayer" font-family="Cambria" font-size="12" font-weight="normal" fill="#4A4A4A">
                <tspan x="509" y="119">[*]</tspan>
            </text>
            <text id="[*]-9" sketch:type="MSTextLayer" font-family="Cambria" font-size="12" font-weight="normal" fill="#4A4A4A">
                <tspan x="336" y="251.092427">[*]</tspan>
            </text>
            <text id="[*]-6" sketch:type="MSTextLayer" font-family="Cambria" font-size="12" font-weight="normal" fill="#4A4A4A">
                <tspan x="263" y="306">[*]</tspan>
            </text>
            <text id="[*]-10" sketch:type="MSTextLayer" font-family="Cambria" font-size="12" font-weight="normal" fill="#4A4A4A">
                <tspan x="459.535325" y="189">[*]</tspan>
            </text>
            <text id="[1]" sketch:type="MSTextLayer" font-family="Cambria" font-size="12" font-weight="normal" fill="#4A4A4A">
                <tspan x="223" y="366">[1]</tspan>
            </text>
            <text id="[1]-3" sketch:type="MSTextLayer" font-family="Cambria" font-size="12" font-weight="normal" fill="#4A4A4A">
                <tspan x="311" y="369">[1]</tspan>
            </text>
            <text id="[1]-12" sketch:type="MSTextLayer" font-family="Cambria" font-size="12" font-weight="normal" fill="#4A4A4A">
                <tspan x="587" y="427">[1]</tspan>
            </text>
            <text id="[1]-13" sketch:type="MSTextLayer" font-family="Cambria" font-size="12" font-weight="normal" fill="#4A4A4A">
                <tspan x="587" y="384.060918">[1]</tspan>
            </text>
            <text id="[1]-5" sketch:type="MSTextLayer" font-family="Cambria" font-size="12" font-weight="normal" fill="#4A4A4A">
                <tspan x="354" y="341">[1]</tspan>
            </text>
            <text id="[1]-6" sketch:type="MSTextLayer" font-family="Cambria" font-size="12" font-weight="normal" fill="#4A4A4A">
                <tspan x="354" y="314">[1]</tspan>
            </text>
            <text id="[1]-7" sketch:type="MSTextLayer" font-family="Cambria" font-size="12" font-weight="normal" fill="#4A4A4A">
                <tspan x="335" y="299">[1]</tspan>
            </text>
            <text id="[1]-8" sketch:type="MSTextLayer" font-family="Cambria" font-size="12" font-weight="normal" fill="#4A4A4A">
                <tspan x="378" y="222">[1]</tspan>
            </text>
            <text id="[1]-2" sketch:type="MSTextLayer" font-family="Cambria" font-size="12" font-weight="normal" fill="#4A4A4A">
                <tspan x="223" y="317">[1]</tspan>
            </text>
            <text id="[1]-4" sketch:type="MSTextLayer" font-family="Cambria" font-size="12" font-weight="normal" fill="#4A4A4A">
                <tspan x="289" y="307">[1]</tspan>
            </text>
            <g id="Collection-Subclass-arrow" sketch:type="MSLayerGroup" transform="translate(722.000000, 55.000000)" stroke="#000000">
                <path d="M15.0491306,73.9499102 L7.86944729,83.2549181 L0.369397568,74.2061459 L15.0491306,73.9499102 Z" id="Triangle-1" sketch:type="MSShapeGroup"></path>
                <path d="M7.5,73.5 L7.5,1.5" id="Line" stroke-linecap="square" sketch:type="MSShapeGroup"></path>
            </g>
            <g id="Workflow-Subclass-arrow" sketch:type="MSLayerGroup" transform="translate(283.500000, 399.000000) rotate(-180.000000) translate(-283.500000, -399.000000) translate(276.000000, 358.000000)" stroke="#000000">
                <path d="M15.0491306,72.9499102 L7.86944729,82.2549181 L0.369397568,73.2061459 L15.0491306,72.9499102 Z" id="Triangle-1" sketch:type="MSShapeGroup"></path>
                <path d="M7.5,72.5 L7.5,-15.5056816" id="Line" stroke-linecap="square" sketch:type="MSShapeGroup"></path>
            </g>
            <text id="«wasInformedBy»" sketch:type="MSTextLayer" font-family="Cambria" font-size="12" font-weight="normal" fill="#000000">
                <tspan x="534" y="96.5">«</tspan>
                <tspan x="539.853516" y="96.5">wasInformedBy</tspan>
                <tspan x="621.105469" y="96.5" font-style="italic">»</tspan>
            </text>
            <g id="used-arrow" sketch:type="MSLayerGroup" transform="translate(656.500000, 148.000000) rotate(270.000000) translate(-656.500000, -148.000000) translate(650.000000, 96.500000)" stroke="#000000">
                <path d="M6.5,93.5 L6.5,-26.5093746" id="Line-2" stroke-linecap="square" sketch:type="MSShapeGroup"></path>
                <path d="M6.5,102.621212 C8.6756672,102.621212 10.4393939,100.830351 10.4393939,98.6212121 C10.4393939,96.4120731 8.6756672,94.6212121 6.5,94.6212121 C4.3243328,94.6212121 2.56060606,96.4120731 2.56060606,98.6212121 C2.56060606,100.830351 4.3243328,102.621212 6.5,102.621212 Z" id="Oval-1" fill="#000000" sketch:type="MSShapeGroup" transform="translate(6.500000, 98.621212) rotate(-90.000000) translate(-6.500000, -98.621212) "></path>
                <path d="M0.0898336502,93.7870518 L6.4306659,80.9102848 L12.7714981,93.7870518" id="Triangle-1" sketch:type="MSShapeGroup" transform="translate(6.430666, 87.348668) rotate(-181.000000) translate(-6.430666, -87.348668) "></path>
            </g>
            <g id="wasGeneratedBy-arrow" sketch:type="MSLayerGroup" transform="translate(630.000000, 166.500000) rotate(90.000000) translate(-630.000000, -166.500000) translate(623.500000, 114.500000)" stroke="#000000">
                <path d="M6.5,94.5 L6.5,-26.5041322" id="Line-2" stroke-linecap="square" sketch:type="MSShapeGroup"></path>
                <path d="M6.5,103.621212 C8.6756672,103.621212 10.4393939,101.830351 10.4393939,99.6212121 C10.4393939,97.4120731 8.6756672,95.6212121 6.5,95.6212121 C4.3243328,95.6212121 2.56060606,97.4120731 2.56060606,99.6212121 C2.56060606,101.830351 4.3243328,103.621212 6.5,103.621212 Z" id="Oval-1" fill="#000000" sketch:type="MSShapeGroup" transform="translate(6.500000, 99.621212) rotate(-90.000000) translate(-6.500000, -99.621212) "></path>
                <path d="M0.0898336502,94.7870518 L6.4306659,81.9102848 L12.7714981,94.7870518" id="Triangle-1" sketch:type="MSShapeGroup" transform="translate(6.430666, 88.348668) rotate(-181.000000) translate(-6.430666, -88.348668) "></path>
            </g>
            <g id="hadPlan-arrow" sketch:type="MSLayerGroup" transform="translate(320.000000, 178.000000)" stroke="#000000">
                <path d="M6.5,132.5 L6.5,60.2504325" id="Line-2" stroke-linecap="square" sketch:type="MSShapeGroup"></path>
                <path d="M6.5,141.621212 C8.6756672,141.621212 10.4393939,139.830351 10.4393939,137.621212 C10.4393939,135.412073 8.6756672,133.621212 6.5,133.621212 C4.3243328,133.621212 2.56060606,135.412073 2.56060606,137.621212 C2.56060606,139.830351 4.3243328,141.621212 6.5,141.621212 Z" id="Oval-1" fill="#000000" sketch:type="MSShapeGroup" transform="translate(6.500000, 137.621212) rotate(-90.000000) translate(-6.500000, -137.621212) "></path>
                <path d="M0.0898336502,132.787052 L6.4306659,119.910285 L12.7714981,132.787052" id="Triangle-1" sketch:type="MSShapeGroup" transform="translate(6.430666, 126.348668) rotate(-181.000000) translate(-6.430666, -126.348668) "></path>
            </g>
            <g id="hasInPort-arrow" sketch:type="MSLayerGroup" transform="translate(418.030052, 300.727434) rotate(249.000000) translate(-418.030052, -300.727434) translate(411.530052, 237.727434)" stroke="#000000">
                <path d="M6.5,116.5 L6.5,-11.3102232" id="Line-2" stroke-linecap="square" sketch:type="MSShapeGroup"></path>
                <path d="M6.5,125.621212 C8.6756672,125.621212 10.4393939,123.830351 10.4393939,121.621212 C10.4393939,119.412073 8.6756672,117.621212 6.5,117.621212 C4.3243328,117.621212 2.56060606,119.412073 2.56060606,121.621212 C2.56060606,123.830351 4.3243328,125.621212 6.5,125.621212 Z" id="Oval-1" fill="#000000" sketch:type="MSShapeGroup" transform="translate(6.500000, 121.621212) rotate(-90.000000) translate(-6.500000, -121.621212) "></path>
                <path d="M0.0898336502,116.787052 L6.4306659,103.910285 L12.7714981,116.787052" id="Triangle-1" sketch:type="MSShapeGroup" transform="translate(6.430666, 110.348668) rotate(-181.000000) translate(-6.430666, -110.348668) "></path>
            </g>
        </g>
    </g>
</svg>