<?xml version="1.0" encoding="UTF-8" standalone="no"?>
<svg width="1280px" height="640px" viewBox="0 0 1280 640" version="1.1" xmlns="http://www.w3.org/2000/svg" xmlns:xlink="http://www.w3.org/1999/xlink" xmlns:sketch="http://www.bohemiancoding.com/sketch/ns">
    <!-- Generator: Sketch 3.2 (9961) - http://www.bohemiancoding.com/sketch -->
    <title>ProvONE-model-revised</title>
    <desc>Created with Sketch.</desc>
    <defs></defs>
    <g id="Page-1" stroke="none" stroke-width="1" fill="none" fill-rule="evenodd" sketch:type="MSPage">
        <g id="ProvONE-model-revised" sketch:type="MSArtboardGroup">
            <g id="Path-+-Path" sketch:type="MSLayerGroup" transform="translate(559.000000, 206.000000)" stroke="#4A4A4A">
                <path d="M0.556640625,114.071289 L41.2437948,114.071289 L41.2437948,63.9963616 L111.530029,63.9963616" id="Path" sketch:type="MSShapeGroup"></path>
                <path d="M130.662842,63.9963616 L301.378043,63.9963616 L301.378043,0.60144663" id="Path" sketch:type="MSShapeGroup"></path>
                <path id="Path-decoration-1" d="M304.378043,11.5115625 C303.328043,7.73156248 302.428043,4.49156248 301.378043,0.711562481 C300.328043,4.49156248 299.428043,7.73156248 298.378043,11.5115625"></path>
            </g>
            <path d="M707.5,600 L960.062503,600 L960.062503,200.741921" id="Path-70" stroke="#4A4A4A" sketch:type="MSShapeGroup"></path>
            <path id="Path-70-decoration-1" d="M719.1,603 C715.32,601.95 712.08,601.05 708.3,600 C712.08,598.95 715.32,598.05 719.1,597" stroke="#4A4A4A"></path>
            <path d="M889.960846,206.36084 C891.617701,206.36084 892.960846,205.017694 892.960846,203.36084 C892.960846,201.703986 891.617701,200.36084 889.960846,200.36084 C888.303992,200.36084 886.960846,201.703986 886.960846,203.36084 C886.960846,205.017694 888.303992,206.36084 889.960846,206.36084 Z" id="Oval-3" stroke="#4A4A4A" fill="#4A4A4A" sketch:type="MSShapeGroup" transform="translate(889.960846, 203.360840) rotate(156.000000) translate(-889.960846, -203.360840) "></path>
            <path d="M859.960846,206.36084 C861.617701,206.36084 862.960846,205.017694 862.960846,203.36084 C862.960846,201.703986 861.617701,200.36084 859.960846,200.36084 C858.303992,200.36084 856.960846,201.703986 856.960846,203.36084 C856.960846,205.017694 858.303992,206.36084 859.960846,206.36084 Z" id="Oval-3" stroke="#4A4A4A" fill="#4A4A4A" sketch:type="MSShapeGroup" transform="translate(859.960846, 203.360840) rotate(156.000000) translate(-859.960846, -203.360840) "></path>
            <g id="User-Box-+-User" sketch:type="MSLayerGroup" transform="translate(19.992370, 160.750000)">
                <rect id="User-Box" stroke="#202020" fill="#ACC39E" sketch:type="MSShapeGroup" x="0" y="0" width="120" height="40"></rect>
                <text id="User" sketch:type="MSTextLayer" font-family="Cambria" font-size="16" font-weight="normal" sketch:alignment="middle" fill="#000000">
                    <tspan x="44.1679687" y="24.7297297">User</tspan>
                </text>
            </g>
            <g id="Author-Box-+-Author" sketch:type="MSLayerGroup" transform="translate(20.000000, 580.000000)">
                <rect id="Author-Box" stroke="#202020" fill="#ACC39E" sketch:type="MSShapeGroup" x="0" y="0" width="120" height="40"></rect>
                <text id="Author" sketch:type="MSTextLayer" font-family="Cambria" font-size="16" font-weight="normal" sketch:alignment="middle" fill="#000000">
                    <tspan x="35.921875" y="24.7297297">Author</tspan>
                </text>
            </g>
            <g id="Execution-Box-+-Execution" sketch:type="MSLayerGroup" transform="translate(438.992370, 160.000000)">
                <rect id="Execution-Box" stroke="#000000" fill="#EFC98C" sketch:type="MSShapeGroup" x="1" y="0" width="120" height="40"></rect>
                <text id="Execution" sketch:type="MSTextLayer" font-family="Cambria" font-size="16" font-weight="normal" sketch:alignment="middle" fill="#000000">
                    <tspan x="27.0429687" y="25.2702703">Execution</tspan>
                </text>
            </g>
            <g id="Association-Box-+-Association" sketch:type="MSLayerGroup" transform="translate(160.000000, 300.000000)">
                <rect id="Association-Box" stroke="#4A4A4A" fill="#E6E6E6" sketch:type="MSShapeGroup" x="0" y="0" width="120" height="40"></rect>
                <text id="«Association»" sketch:type="MSTextLayer" font-family="Cambria" font-size="16" font-weight="normal" sketch:alignment="middle" fill="#4A4A4A">
                    <tspan x="12.9453125" y="23.734375">«Association</tspan>
                    <tspan x="99.5546875" y="23.734375" font-style="italic">»</tspan>
                </text>
            </g>
            <g id="Association-Box-+-Association-2" sketch:type="MSLayerGroup" transform="translate(439.500000, 301.000000)">
                <rect id="Association-Box" stroke="#4A4A4A" fill="#E6E6E6" sketch:type="MSShapeGroup" x="0" y="0" width="120" height="40"></rect>
                <text id="«Usage»" sketch:type="MSTextLayer" font-family="Cambria" font-size="16" font-weight="normal" sketch:alignment="middle" fill="#4A4A4A">
                    <tspan x="31.9648438" y="24.4706347">«</tspan>
                    <tspan x="39.7695312" y="24.4706347">Usage</tspan>
                    <tspan x="80.5351562" y="24.4706347" font-style="italic">»</tspan>
                </text>
            </g>
            <g id="Association-Box-+-Association-3" sketch:type="MSLayerGroup" transform="translate(720.000000, 301.000000)">
                <rect id="Association-Box" stroke="#4A4A4A" fill="#E6E6E6" sketch:type="MSShapeGroup" x="0" y="0" width="120" height="40"></rect>
                <text id="«Generation»" sketch:type="MSTextLayer" font-family="Cambria" font-size="16" font-weight="normal" sketch:alignment="middle" fill="#4A4A4A">
                    <tspan x="14.3359375" y="23.734375">«Generation</tspan>
                    <tspan x="98.1640625" y="23.734375" font-style="italic">»</tspan>
                </text>
            </g>
            <g id="Data-Box-+-Data" sketch:type="MSLayerGroup" transform="translate(860.000000, 160.000000)">
                <rect id="Data-Box" stroke="#000000" fill="#E2BAE4" sketch:type="MSShapeGroup" x="0" y="0" width="120" height="40"></rect>
                <text id="«Entity»" sketch:type="MSTextLayer" font-family="Cambria" font-size="16" font-weight="normal" sketch:alignment="middle" fill="#000000">
                    <tspan x="31.6132813" y="23.734375">«Entity</tspan>
                    <tspan x="80.8867188" y="23.734375" font-style="italic">»</tspan>
                </text>
            </g>
            <g id="Data-Box-+-Data-2" sketch:type="MSLayerGroup" transform="translate(1140.000000, 160.000000)">
                <rect id="Data-Box" stroke="#000000" fill="#E2BAE4" sketch:type="MSShapeGroup" x="0" y="0" width="120" height="40"></rect>
                <text id="Data" sketch:type="MSTextLayer" font-family="Cambria" font-size="16" font-weight="normal" fill="#000000">
                    <tspan x="43.2" y="25.5595439">Data</tspan>
                </text>
            </g>
            <g id="Data-Box-+-Data-5" sketch:type="MSLayerGroup" transform="translate(1140.000000, 300.000000)">
                <rect id="Data-Box" stroke="#000000" fill="#E2BAE4" sketch:type="MSShapeGroup" x="0" y="0" width="120" height="40"></rect>
                <text id="Document" sketch:type="MSTextLayer" font-family="Cambria" font-size="16" font-weight="normal" sketch:alignment="middle" fill="#000000">
                    <tspan x="24.7851563" y="25.5595439">Document</tspan>
                </text>
            </g>
            <g id="Data-Box-+-Data-4" sketch:type="MSLayerGroup" transform="translate(1140.000000, 20.000000)">
                <rect id="Data-Box" stroke="#000000" fill="#E2BAE4" sketch:type="MSShapeGroup" x="0" y="0" width="120" height="40"></rect>
                <text id="Visualization" sketch:type="MSTextLayer" font-family="Cambria" font-size="16" font-weight="normal" sketch:alignment="middle" fill="#000000">
                    <tspan x="15.609375" y="25.5595439">Visualization</tspan>
                </text>
            </g>
            <g id="Collection-Box-+-Collection" sketch:type="MSLayerGroup" transform="translate(860.000000, 20.000000)">
                <rect id="Collection-Box" stroke="#000000" fill="#E2BAE4" sketch:type="MSShapeGroup" x="0" y="0" width="120" height="40"></rect>
                <text id="Collection" sketch:type="MSTextLayer" font-family="Cambria" font-size="16" font-weight="normal" sketch:alignment="middle" fill="#000000">
                    <tspan x="25.8398438" y="24.4784628">Collection</tspan>
                </text>
            </g>
            <g id="Controller-Box-+-Controller" sketch:type="MSLayerGroup" transform="translate(20.000000, 440.000000)">
                <rect id="Controller-Box" stroke="#000000" fill="#A2CACE" sketch:type="MSShapeGroup" x="0" y="0" width="120" height="40"></rect>
                <text id="Controller" sketch:type="MSTextLayer" font-family="Cambria" font-size="16" font-weight="normal" sketch:alignment="middle" fill="#000000">
                    <tspan x="25.5726563" y="25.8108108">Controller</tspan>
                </text>
            </g>
            <rect id="Program-Box" stroke="#000000" fill="#A2CACE" sketch:type="MSShapeGroup" x="300" y="440" width="120" height="40"></rect>
            <text id="Program" sketch:type="MSTextLayer" font-family="Cambria" font-size="16" font-weight="normal" sketch:alignment="middle" fill="#000000">
                <tspan x="331.078125" y="465.199219">Program</tspan>
            </text>
            <g id="Workflow-Box-+-Workflow" sketch:type="MSLayerGroup" transform="translate(300.000000, 580.000000)">
                <rect id="Workflow-Box" stroke="#000000" fill="#A2CACE" sketch:type="MSShapeGroup" x="0" y="0" width="120" height="40"></rect>
                <text id="Workflow" sketch:type="MSTextLayer" font-family="Cambria" font-size="16" font-weight="normal" sketch:alignment="middle" fill="#000000">
                    <tspan x="26.44375" y="24.7297297">Workflow</tspan>
                </text>
            </g>
            <g id="Container-Box-+-Container" sketch:type="MSLayerGroup" transform="translate(580.000000, 581.000000)">
                <rect id="Container-Box" stroke="#000000" fill="#A2CACE" sketch:type="MSShapeGroup" x="0" y="0" width="120" height="40"></rect>
                <text id="«Location»" sketch:type="MSTextLayer" font-family="Cambria" font-size="16" font-weight="normal" sketch:alignment="middle" fill="#000000">
                    <tspan x="22.734375" y="23.734375">«Location</tspan>
                    <tspan x="89.765625" y="23.734375" font-style="italic">»</tspan>
                </text>
            </g>
            <g id="InputPort-Box-+-InputPort" sketch:type="MSLayerGroup" transform="translate(580.000000, 440.000000)">
                <rect id="InputPort-Box" stroke="#000000" fill="#A2CACE" sketch:type="MSShapeGroup" x="0" y="0" width="120" height="40"></rect>
                <text id="Port" sketch:type="MSTextLayer" font-family="Cambria" font-size="16" font-weight="normal" sketch:alignment="middle" fill="#000000">
                    <tspan x="45.7953125" y="24.7297297">Port</tspan>
                </text>
            </g>
            <text id="wasPartOf" sketch:type="MSTextLayer" font-family="Cambria" font-size="12" font-weight="normal" fill="#4A4A4A">
                <tspan x="435.99237" y="120">wasPartOf</tspan>
            </text>
            <text id="«hadMember»" sketch:type="MSTextLayer" font-family="Cambria" font-size="12" font-weight="normal" fill="#4A4A4A">
                <tspan x="910" y="90">«hadMember</tspan>
                <tspan x="977.998047" y="90" font-style="italic">»</tspan>
            </text>
            <text id="«wasAttributedTo»" sketch:type="MSTextLayer" font-family="Cambria" font-size="12" font-weight="normal" fill="#4A4A4A">
                <tspan x="141" y="548.300781">«wasAttributedTo</tspan>
                <tspan x="232.828125" y="548.300781" font-style="italic">»</tspan>
            </text>
            <text id="«wasDerivedFrom»" sketch:type="MSTextLayer" font-family="Cambria" font-size="12" font-weight="normal" fill="#4A4A4A">
                <tspan x="340" y="528">«wasDerivedFrom</tspan>
                <tspan x="433.457031" y="528" font-style="italic">»</tspan>
            </text>
            <text id="hasSubProgram" sketch:type="MSTextLayer" font-family="Cambria" font-size="12" font-weight="normal" fill="#4A4A4A">
                <tspan x="340.5" y="400">hasSubProgram</tspan>
            </text>
            <text id="«hadPlan»" sketch:type="MSTextLayer" font-family="Cambria" font-size="12" font-weight="normal" fill="#4A4A4A">
                <tspan x="226.683051" y="380.800781">«hadPlan</tspan>
                <tspan x="274.302191" y="380.800781" font-style="italic">»</tspan>
            </text>
            <text id="controlledBy" sketch:type="MSTextLayer" font-family="Cambria" font-size="12" font-weight="normal" fill="#4A4A4A">
                <tspan x="177" y="440">controlledBy</tspan>
            </text>
            <text id="controls" sketch:type="MSTextLayer" font-family="Cambria" font-size="12" font-weight="normal" fill="#4A4A4A">
                <tspan x="186.683051" y="487">controls</tspan>
            </text>
            <text id="[*]" sketch:type="MSTextLayer" font-family="Cambria" font-size="12" font-weight="normal" fill="#4A4A4A">
                <tspan x="149" y="487.735236">[*]</tspan>
            </text>
            <text id="[*]-3" sketch:type="MSTextLayer" font-family="Cambria" font-size="12" font-weight="normal" fill="#4A4A4A">
                <tspan x="59" y="568">[*]</tspan>
            </text>
            <text id="[*]-4" sketch:type="MSTextLayer" font-family="Cambria" font-size="12" font-weight="normal" fill="#4A4A4A">
                <tspan x="278" y="509">[*]</tspan>
            </text>
            <text id="[*]-5" sketch:type="MSTextLayer" font-family="Cambria" font-size="12" font-weight="normal" fill="#4A4A4A">
                <tspan x="388" y="498">[*]</tspan>
            </text>
            <text id="[*]-2" sketch:type="MSTextLayer" font-family="Cambria" font-size="12" font-weight="normal" fill="#4A4A4A">
                <tspan x="149.00763" y="438">[*]</tspan>
            </text>
            <text id="[*]-12" sketch:type="MSTextLayer" font-family="Cambria" font-size="12" font-weight="normal" fill="#4A4A4A">
                <tspan x="507.99237" y="148">[*]</tspan>
            </text>
            <text id="[*]-13" sketch:type="MSTextLayer" font-family="Cambria" font-size="12" font-weight="normal" fill="#4A4A4A">
                <tspan x="527.99237" y="148">[*]</tspan>
            </text>
            <text id="[*]-17" sketch:type="MSTextLayer" font-family="Cambria" font-size="12" font-weight="normal" fill="#4A4A4A">
                <tspan x="878" y="148">[*]</tspan>
            </text>
            <text id="«wasDerivedFrom»" sketch:type="MSTextLayer" font-family="Cambria" font-size="12" font-weight="normal" fill="#4A4A4A">
                <tspan x="920" y="119.399994">«wasDerivedFrom</tspan>
                <tspan x="1013.45703" y="119.399994" font-style="italic">»</tspan>
            </text>
            <text id="[*]-18" sketch:type="MSTextLayer" font-family="Cambria" font-size="12" font-weight="normal" fill="#4A4A4A">
                <tspan x="948" y="149">[*]</tspan>
            </text>
            <text id="[*]-19" sketch:type="MSTextLayer" font-family="Cambria" font-size="12" font-weight="normal" fill="#4A4A4A">
                <tspan x="929" y="149">[*]</tspan>
            </text>
            <text id="[0..1]" sketch:type="MSTextLayer" font-family="Cambria" font-size="12" font-weight="normal" fill="#4A4A4A">
                <tspan x="866.263211" y="78">[0..1]</tspan>
            </text>
            <text id="[0..1]-3" sketch:type="MSTextLayer" font-family="Cambria" font-size="12" font-weight="normal" fill="#4A4A4A">
                <tspan x="928" y="219.302734">[0..1]</tspan>
            </text>
            <text id="[0..1]" sketch:type="MSTextLayer" font-family="Cambria" font-size="12" font-weight="normal" fill="#4A4A4A">
                <tspan x="710" y="479">[0..1]</tspan>
            </text>
            <text id="[*]-20" sketch:type="MSTextLayer" font-family="Cambria" font-size="12" font-weight="normal" fill="#4A4A4A">
                <tspan x="968" y="219">[*]</tspan>
            </text>
            <text id="[0..1]-2" sketch:type="MSTextLayer" font-family="Cambria" font-size="12" font-weight="normal" fill="#4A4A4A">
                <tspan x="710" y="619">[0..1]</tspan>
            </text>
            <text id="[*]-14" sketch:type="MSTextLayer" font-family="Cambria" font-size="12" font-weight="normal" fill="#4A4A4A">
                <tspan x="467.99237" y="148">[*]</tspan>
            </text>
            <text id="[1]" sketch:type="MSTextLayer" font-family="Cambria" font-size="12" font-weight="normal" fill="#4A4A4A">
                <tspan x="447.99237" y="148">[1]</tspan>
            </text>
            <text id="[*]-9" sketch:type="MSTextLayer" font-family="Cambria" font-size="12" font-weight="normal" fill="#4A4A4A">
                <tspan x="198" y="358">[*]</tspan>
            </text>
            <text id="[*]-6" sketch:type="MSTextLayer" font-family="Cambria" font-size="12" font-weight="normal" fill="#4A4A4A">
                <tspan x="350" y="429">[*]</tspan>
            </text>
            <text id="[0..1]" sketch:type="MSTextLayer" font-family="Cambria" font-size="12" font-weight="normal" fill="#4A4A4A">
                <tspan x="255" y="487.800781">[0..1]</tspan>
            </text>
            <text id="[0..1]" sketch:type="MSTextLayer" font-family="Cambria" font-size="12" font-weight="normal" fill="#4A4A4A">
                <tspan x="350" y="498">[0..1]</tspan>
            </text>
            <text id="hasOutPort" sketch:type="MSTextLayer" font-family="Cambria" font-size="12" font-weight="normal" fill="#4A4A4A">
                <tspan x="475" y="488.157898">hasOutPort</tspan>
            </text>
            <text id="[*]-7" sketch:type="MSTextLayer" font-family="Cambria" font-size="12" font-weight="normal" fill="#4A4A4A">
                <tspan x="548" y="488">[*]</tspan>
            </text>
            <text id="[0..1]" sketch:type="MSTextLayer" font-family="Cambria" font-size="12" font-weight="normal" fill="#4A4A4A">
                <tspan x="429" y="488.199219">[0..1]</tspan>
            </text>
            <text id="[1]-7" sketch:type="MSTextLayer" font-family="Cambria" font-size="12" font-weight="normal" fill="#4A4A4A">
                <tspan x="297" y="428">[1]</tspan>
            </text>
            <text id="«wasAssociatedWith»" sketch:type="MSTextLayer" font-family="Cambria" font-size="12" font-weight="normal" fill="#4A4A4A">
                <tspan x="232" y="169">«wasAssociatedWith</tspan>
                <tspan x="338.119141" y="169" font-style="italic">»</tspan>
            </text>
            <text id="«agent»" sketch:type="MSTextLayer" font-family="Cambria" font-size="12" font-weight="normal" fill="#4A4A4A">
                <tspan x="88" y="260.25">«agent</tspan>
                <tspan x="122.253906" y="260.25" font-style="italic">»</tspan>
            </text>
            <text id="[1]" sketch:type="MSTextLayer" font-family="Cambria" font-size="12" font-weight="normal" fill="#4A4A4A">
                <tspan x="88" y="218.131885">[1]</tspan>
            </text>
            <text id="[0..1]" sketch:type="MSTextLayer" font-family="Cambria" font-size="12" font-weight="normal" fill="#4A4A4A">
                <tspan x="153" y="167.403399">[0..1]</tspan>
            </text>
            <text id="[*]" sketch:type="MSTextLayer" font-family="Cambria" font-size="12" font-weight="normal" fill="#4A4A4A">
                <tspan x="138" y="312">[*]</tspan>
            </text>
            <text id="[*]-11" sketch:type="MSTextLayer" font-family="Cambria" font-size="12" font-weight="normal" fill="#4A4A4A">
                <tspan x="417.99237" y="171">[*]</tspan>
            </text>
            <text id="[*]-10" sketch:type="MSTextLayer" font-family="Cambria" font-size="12" font-weight="normal" fill="#4A4A4A">
                <tspan x="438.535325" y="218">[*]</tspan>
            </text>
            <text id="[*]-22" sketch:type="MSTextLayer" font-family="Cambria" font-size="12" font-weight="normal" fill="#4A4A4A">
                <tspan x="478.535325" y="218">[*]</tspan>
            </text>
            <text id="[*]-25" sketch:type="MSTextLayer" font-family="Cambria" font-size="12" font-weight="normal" fill="#4A4A4A">
                <tspan x="478.535325" y="358">[*]</tspan>
            </text>
            <text id="[*]-28" sketch:type="MSTextLayer" font-family="Cambria" font-size="12" font-weight="normal" fill="#4A4A4A">
                <tspan x="789" y="358">[*]</tspan>
            </text>
            <text id="[*]-24" sketch:type="MSTextLayer" font-family="Cambria" font-size="12" font-weight="normal" fill="#4A4A4A">
                <tspan x="518.535325" y="218">[*]</tspan>
            </text>
            <text id="[*]-26" sketch:type="MSTextLayer" font-family="Cambria" font-size="12" font-weight="normal" fill="#4A4A4A">
                <tspan x="568.535325" y="338">[*]</tspan>
            </text>
            <text id="[*]-27" sketch:type="MSTextLayer" font-family="Cambria" font-size="12" font-weight="normal" fill="#4A4A4A">
                <tspan x="848.535325" y="338">[*]</tspan>
            </text>
            <text id="[0..1]" sketch:type="MSTextLayer" font-family="Cambria" font-size="12" font-weight="normal" fill="#4A4A4A">
                <tspan x="288" y="309">[0..1]</tspan>
            </text>
            <text id="[0..1]-4" sketch:type="MSTextLayer" font-family="Cambria" font-size="12" font-weight="normal" fill="#4A4A4A">
                <tspan x="465" y="288">[0..1]</tspan>
            </text>
            <text id="[0..1]-5" sketch:type="MSTextLayer" font-family="Cambria" font-size="12" font-weight="normal" fill="#4A4A4A">
                <tspan x="685" y="338">[0..1]</tspan>
            </text>
            <text id="[0..1]" sketch:type="MSTextLayer" font-family="Cambria" font-size="12" font-weight="normal" fill="#4A4A4A">
                <tspan x="255" y="438">[0..1]</tspan>
            </text>
            <text id="[0..1]" sketch:type="MSTextLayer" font-family="Cambria" font-size="12" font-weight="normal" fill="#4A4A4A">
                <tspan x="375" y="429">[0..1]</tspan>
            </text>
            <g id="Collection-Subclass-arrow" sketch:type="MSLayerGroup" transform="translate(852.000000, 60.000000)" stroke="#4A4A4A">
                <path d="M15.0491306,89.9499102 L7.86944729,99.2549181 L0.369397568,90.2061459 L15.0491306,89.9499102 Z" id="Triangle-1" sketch:type="MSShapeGroup"></path>
                <path d="M8,89.5 L8,0.5" id="Line" stroke-linecap="square" sketch:type="MSShapeGroup"></path>
            </g>
            <g id="Collection-Subclass-arrow-2" sketch:type="MSLayerGroup" transform="translate(1060.000000, 180.000000) rotate(-270.000000) translate(-1060.000000, -180.000000) translate(1052.500000, 100.000000)" stroke="#4A4A4A">
                <path d="M15.0498461,150.030999 L7.86870656,159.252581 L0.370113051,150.287235 L15.0498461,150.030999 Z" id="Triangle-1" sketch:type="MSShapeGroup"></path>
                <path d="M7.5,149.586364 L7.5,0.499161571" id="Line" stroke-linecap="square" sketch:type="MSShapeGroup"></path>
            </g>
            <g id="Workflow-Subclass-arrow" sketch:type="MSLayerGroup" transform="translate(319.500000, 530.500000) rotate(-180.000000) translate(-319.500000, -530.500000) translate(311.500000, 480.000000)" stroke="#4A4A4A">
                <path d="M15.0491306,90.9499102 L7.86944729,100.254918 L0.369397568,91.2061459 L15.0491306,90.9499102 Z" id="Triangle-1" sketch:type="MSShapeGroup"></path>
                <path d="M7.5,90.5 L7.5,1.49859554" id="Line" stroke-linecap="square" sketch:type="MSShapeGroup"></path>
            </g>
            <text id="hasInPort" sketch:type="MSTextLayer" font-family="Cambria" font-size="12" font-weight="normal" fill="#4A4A4A">
                <tspan x="475" y="440">hasInPort</tspan>
            </text>
            <text id="[*]-8" sketch:type="MSTextLayer" font-family="Cambria" font-size="12" font-weight="normal" fill="#4A4A4A">
                <tspan x="548" y="438">[*]</tspan>
            </text>
            <text id="[0..1]" sketch:type="MSTextLayer" font-family="Cambria" font-size="12" font-weight="normal" fill="#4A4A4A">
                <tspan x="429" y="437.800781">[0..1]</tspan>
            </text>
            <path d="M1140,40 L1059,40 L1059,180" id="Path-53" stroke="#4A4A4A" sketch:type="MSShapeGroup"></path>
            <path d="M1140,180 L1059,180 L1059,320" id="Path-55" stroke="#4A4A4A" sketch:type="MSShapeGroup" transform="translate(1099.500000, 250.000000) scale(1, -1) translate(-1099.500000, -250.000000) "></path>
            <text id="hasLocation" sketch:type="MSTextLayer" font-family="Cambria" font-size="12" font-weight="normal" fill="#4A4A4A">
                <tspan x="568.6" y="532.78325">hasLocation</tspan>
            </text>
            <text id="[*]-23" sketch:type="MSTextLayer" font-family="Cambria" font-size="12" font-weight="normal" fill="#4A4A4A">
                <tspan x="618" y="568">[*]</tspan>
            </text>
            <text id="[0..1]" sketch:type="MSTextLayer" font-family="Cambria" font-size="12" font-weight="normal" fill="#4A4A4A">
                <tspan x="605.5" y="499">[0..1]</tspan>
            </text>
            <path d="M640,580.5 C641.656854,580.5 643,579.156854 643,577.5 C643,575.843146 641.656854,574.5 640,574.5 C638.343146,574.5 637,575.843146 637,577.5 C637,579.156854 638.343146,580.5 640,580.5 Z" id="Oval-2" stroke="#4A4A4A" fill="#4A4A4A" sketch:type="MSShapeGroup" transform="translate(640.000000, 577.500000) rotate(-180.000000) translate(-640.000000, -577.500000) "></path>
            <path d="M640,574.894857 L640,480.48777" id="Line-8" stroke="#4A4A4A" stroke-linecap="square" sketch:type="MSShapeGroup" transform="translate(640.000000, 527.691313) rotate(-180.000000) translate(-640.000000, -527.691313) "></path>
            <path id="Line-8-decoration-1" d="M643,491.694857 C641.95,487.914857 641.05,484.674857 640,480.894857 C638.95,484.674857 638.05,487.914857 637,491.694857" stroke="#4A4A4A" stroke-linecap="square"></path>
            <g id="Oval-2-+-Line-9" sketch:type="MSLayerGroup" transform="translate(499.500000, 450.000000) rotate(-270.000000) translate(-499.500000, -450.000000) translate(496.000000, 369.500000)" stroke="#4A4A4A">
                <path d="M3.5,6.65390603 C5.15685425,6.65390603 6.5,5.31076028 6.5,3.65390603 C6.5,1.99705178 5.15685425,0.653906028 3.5,0.653906028 C1.84314575,0.653906028 0.5,1.99705178 0.5,3.65390603 C0.5,5.31076028 1.84314575,6.65390603 3.5,6.65390603 Z" id="Oval-2" fill="#4A4A4A" sketch:type="MSShapeGroup"></path>
                <path d="M3.5,159.507446 L3.5,8.5" id="Line-8" stroke-linecap="square" sketch:type="MSShapeGroup"></path>
                <path id="Line-8-decoration-1" d="M6.5,19.3074463 C5.45,15.5274463 4.55,12.2874463 3.5,8.50744629 C2.45,12.2874463 1.55,15.5274463 0.5,19.3074463" stroke-linecap="square"></path>
            </g>
            <g id="Oval-2-+-Line-10" sketch:type="MSLayerGroup" transform="translate(499.500000, 470.000000) rotate(-270.000000) translate(-499.500000, -470.000000) translate(496.000000, 389.500000)" stroke="#4A4A4A">
                <path d="M3.5,6.65390603 C5.15685425,6.65390603 6.5,5.31076028 6.5,3.65390603 C6.5,1.99705178 5.15685425,0.653906028 3.5,0.653906028 C1.84314575,0.653906028 0.5,1.99705178 0.5,3.65390603 C0.5,5.31076028 1.84314575,6.65390603 3.5,6.65390603 Z" id="Oval-2" fill="#4A4A4A" sketch:type="MSShapeGroup"></path>
                <path d="M3.5,159.507446 L3.5,8.5" id="Line-8" stroke-linecap="square" sketch:type="MSShapeGroup"></path>
                <path id="Line-8-decoration-1" d="M6.5,19.3074463 C5.45,15.5274463 4.55,12.2874463 3.5,8.50744629 C2.45,12.2874463 1.55,15.5274463 0.5,19.3074463" stroke-linecap="square"></path>
            </g>
            <g id="Oval-2-+-Line-14" sketch:type="MSLayerGroup" transform="translate(499.500000, 263.500000) rotate(-180.000000) translate(-499.500000, -263.500000) translate(496.500000, 227.000000)" stroke="#4A4A4A">
                <path d="M2.5,5.65390603 C4.15685425,5.65390603 5.5,4.31076028 5.5,2.65390603 C5.5,0.997051778 4.15685425,-0.346093972 2.5,-0.346093972 C0.843145751,-0.346093972 -0.5,0.997051778 -0.5,2.65390603 C-0.5,4.31076028 0.843145751,5.65390603 2.5,5.65390603 Z" id="Oval-2" fill="#4A4A4A" sketch:type="MSShapeGroup"></path>
                <path d="M2.5,99.501358 L2.5,7.5" id="Line-8" stroke-linecap="square" sketch:type="MSShapeGroup"></path>
                <path id="Line-8-decoration-1" d="M5.5,18.301358 C4.45,14.521358 3.55,11.281358 2.5,7.50135803 C1.45,11.281358 0.55,14.521358 -0.5,18.301358" stroke-linecap="square"></path>
            </g>
            <path d="M319.984005,439.434454 C321.632026,439.434454 322.968011,438.105982 322.968011,436.467227 C322.968011,434.828473 321.632026,433.5 319.984005,433.5 C318.335985,433.5 317,434.828473 317,436.467227 C317,438.105982 318.335985,439.434454 319.984005,439.434454 Z" id="Oval-2" stroke="#4A4A4A" fill="#4A4A4A" sketch:type="MSShapeGroup" transform="translate(319.984005, 436.467227) rotate(-180.000000) translate(-319.984005, -436.467227) "></path>
            <path d="M296.5,473 C298.156854,473 299.5,471.656854 299.5,470 C299.5,468.343146 298.156854,467 296.5,467 C294.843146,467 293.5,468.343146 293.5,470 C293.5,471.656854 294.843146,473 296.5,473 Z" id="Oval-10" stroke="#4A4A4A" fill="#4A4A4A" sketch:type="MSShapeGroup" transform="translate(296.500000, 470.000000) rotate(-180.000000) translate(-296.500000, -470.000000) "></path>
            <path d="M80,579.5 C81.6568542,579.5 83,578.156854 83,576.5 C83,574.843146 81.6568542,573.5 80,573.5 C78.3431458,573.5 77,574.843146 77,576.5 C77,578.156854 78.3431458,579.5 80,579.5 Z" id="Oval-12" stroke="#4A4A4A" fill="#4A4A4A" sketch:type="MSShapeGroup" transform="translate(80.000000, 576.500000) rotate(-180.000000) translate(-80.000000, -576.500000) "></path>
            <path d="M143.484005,452.934454 C145.132026,452.934454 146.468011,451.605982 146.468011,449.967227 C146.468011,448.328473 145.132026,447 143.484005,447 C141.835985,447 140.5,448.328473 140.5,449.967227 C140.5,451.605982 141.835985,452.934454 143.484005,452.934454 Z" id="Oval-11" stroke="#4A4A4A" fill="#4A4A4A" sketch:type="MSShapeGroup" transform="translate(143.484005, 449.967227) rotate(-180.000000) translate(-143.484005, -449.967227) "></path>
            <path d="M339.984005,439.434454 C341.632026,439.434454 342.968011,438.105982 342.968011,436.467227 C342.968011,434.828473 341.632026,433.5 339.984005,433.5 C338.335985,433.5 337,434.828473 337,436.467227 C337,438.105982 338.335985,439.434454 339.984005,439.434454 Z" id="Oval-9" stroke="#4A4A4A" fill="#4A4A4A" sketch:type="MSShapeGroup" transform="translate(339.984005, 436.467227) rotate(-180.000000) translate(-339.984005, -436.467227) "></path>
            <path d="M409.984005,485.934454 C411.632026,485.934454 412.968011,484.605982 412.968011,482.967227 C412.968011,481.328473 411.632026,480 409.984005,480 C408.335985,480 407,481.328473 407,482.967227 C407,484.605982 408.335985,485.934454 409.984005,485.934454 Z" id="Oval-8" stroke="#4A4A4A" fill="#4A4A4A" sketch:type="MSShapeGroup" transform="translate(409.984005, 482.967227) rotate(-180.000000) translate(-409.984005, -482.967227) "></path>
            <path d="M670,439.5 C671.656854,439.5 673,438.156854 673,436.5 C673,434.843146 671.656854,433.5 670,433.5 C668.343146,433.5 667,434.843146 667,436.5 C667,438.156854 668.343146,439.5 670,439.5 Z" id="Oval-2" stroke="#4A4A4A" fill="#4A4A4A" sketch:type="MSShapeGroup"></path>
            <path d="M283.103668,323.131885 C284.760522,323.131885 286.103668,321.788739 286.103668,320.131885 C286.103668,318.47503 284.760522,317.131885 283.103668,317.131885 C281.446814,317.131885 280.103668,318.47503 280.103668,320.131885 C280.103668,321.788739 281.446814,323.131885 283.103668,323.131885 Z" id="Oval-2" stroke="#4A4A4A" fill="#4A4A4A" sketch:type="MSShapeGroup" transform="translate(283.103668, 320.131885) rotate(204.000000) translate(-283.103668, -320.131885) "></path>
            <path d="M143.103668,183.131885 C144.760522,183.131885 146.103668,181.788739 146.103668,180.131885 C146.103668,178.47503 144.760522,177.131885 143.103668,177.131885 C141.446814,177.131885 140.103668,178.47503 140.103668,180.131885 C140.103668,181.788739 141.446814,183.131885 143.103668,183.131885 Z" id="Oval-6" stroke="#4A4A4A" fill="#4A4A4A" sketch:type="MSShapeGroup"></path>
            <path d="M80.1036682,207.131885 C81.7605224,207.131885 83.1036682,205.788739 83.1036682,204.131885 C83.1036682,202.47503 81.7605224,201.131885 80.1036682,201.131885 C78.4468139,201.131885 77.1036682,202.47503 77.1036682,204.131885 C77.1036682,205.788739 78.4468139,207.131885 80.1036682,207.131885 Z" id="Oval-7" stroke="#4A4A4A" fill="#4A4A4A" sketch:type="MSShapeGroup"></path>
            <path d="M716.5,323.100006 C718.156854,323.100006 719.5,321.75686 719.5,320.100006 C719.5,318.443152 718.156854,317.100006 716.5,317.100006 C714.843146,317.100006 713.5,318.443152 713.5,320.100006 C713.5,321.75686 714.843146,323.100006 716.5,323.100006 Z" id="Oval-5" stroke="#4A4A4A" fill="#4A4A4A" sketch:type="MSShapeGroup"></path>
            <text id="«wasInformedBy»" sketch:type="MSTextLayer" font-family="Cambria" font-size="12" font-weight="normal" fill="#4A4A4A">
                <tspan x="500" y="120">«wasInformedBy</tspan>
                <tspan x="587.105469" y="120" font-style="italic">»</tspan>
            </text>
            <text id="[*]-15" sketch:type="MSTextLayer" font-family="Cambria" font-size="12" font-weight="normal" fill="#4A4A4A">
                <tspan x="828.5" y="158.903399">[*]</tspan>
            </text>
            <text id="[1]-10" sketch:type="MSTextLayer" font-family="Cambria" font-size="12" font-weight="normal" fill="#4A4A4A">
                <tspan x="568" y="159.121094">[1]</tspan>
            </text>
            <text id="«wasGeneratedBy»" sketch:type="MSTextLayer" font-family="Cambria" font-size="12" font-weight="normal" fill="#4A4A4A">
                <tspan x="660" y="207.903399">«wasGeneratedBy</tspan>
                <tspan x="752.021484" y="207.903399" font-style="italic">»</tspan>
            </text>
            <text id="«atLocation»" sketch:type="MSTextLayer" font-family="Cambria" font-size="12" font-weight="normal" fill="#4A4A4A">
                <tspan x="968.608776" y="379.5">«atLocation</tspan>
                <tspan x="1028.80214" y="379.5" font-style="italic">»</tspan>
            </text>
            <text id="«qualifiedGeneration" sketch:type="MSTextLayer" font-family="Cambria" font-size="12" font-weight="normal" fill="#4A4A4A">
                <tspan x="556" y="246">«qualifiedGeneration</tspan>
                <tspan x="663.783203" y="246" font-style="italic">»</tspan>
            </text>
            <text id="«qualifiedUsage»" sketch:type="MSTextLayer" font-family="Cambria" font-size="12" font-weight="normal" fill="#4A4A4A">
                <tspan x="404" y="269">«qualifiedUsage</tspan>
                <tspan x="485.544922" y="269" font-style="italic">»</tspan>
            </text>
            <text id="«qualifiedAssociatio" sketch:type="MSTextLayer" font-family="Cambria" font-size="12" font-weight="normal" fill="#4A4A4A">
                <tspan x="330" y="246.39867">«qualifiedAssociation</tspan>
                <tspan x="440.074219" y="246.39867" font-style="italic">»</tspan>
            </text>
            <text id="hadEntity" sketch:type="MSTextLayer" font-family="Cambria" font-size="12" font-weight="normal" fill="#4A4A4A">
                <tspan x="610.28952" y="289.37921">hadEntity</tspan>
            </text>
            <text id="«used»" sketch:type="MSTextLayer" font-family="Cambria" font-size="12" font-weight="normal" fill="#4A4A4A">
                <tspan x="691.99237" y="159.903399">«used</tspan>
                <tspan x="722.138854" y="159.903399" font-style="italic">»</tspan>
            </text>
            <text id="hadOutPort" sketch:type="MSTextLayer" font-family="Cambria" font-size="12" font-weight="normal" fill="#4A4A4A">
                <tspan x="709.99237" y="379.903399">hadOutPort</tspan>
            </text>
            <text id="hadInPort" sketch:type="MSTextLayer" font-family="Cambria" font-size="12" font-weight="normal" fill="#4A4A4A">
                <tspan x="510.99237" y="379.903399">hadInPort</tspan>
            </text>
            <text id="[*]-16" sketch:type="MSTextLayer" font-family="Cambria" font-size="12" font-weight="normal" fill="#4A4A4A">
                <tspan x="828" y="208">[*]</tspan>
            </text>
            <text id="[1]-11" sketch:type="MSTextLayer" font-family="Cambria" font-size="12" font-weight="normal" fill="#4A4A4A">
                <tspan x="568" y="208">[1]</tspan>
            </text>
            <text id="[1]-12" sketch:type="MSTextLayer" font-family="Cambria" font-size="12" font-weight="normal" fill="#4A4A4A">
                <tspan x="597" y="429">[1]</tspan>
            </text>
            <text id="[1]-15" sketch:type="MSTextLayer" font-family="Cambria" font-size="12" font-weight="normal" fill="#4A4A4A">
                <tspan x="679" y="429">[1]</tspan>
            </text>
            <text id="[1]-13" sketch:type="MSTextLayer" font-family="Cambria" font-size="12" font-weight="normal" fill="#4A4A4A">
                <tspan x="868" y="218">[1]</tspan>
            </text>
            <text id="[1]-14" sketch:type="MSTextLayer" font-family="Cambria" font-size="12" font-weight="normal" fill="#4A4A4A">
                <tspan x="898" y="218">[1]</tspan>
            </text>
            <g id="Oval-2-+-Line-17" sketch:type="MSLayerGroup" transform="translate(560.366879, 166.903399)" stroke="#4A4A4A">
                <path d="M296,6.5 C297.656854,6.5 299,5.15685425 299,3.5 C299,1.84314575 297.656854,0.5 296,0.5 C294.343146,0.5 293,1.84314575 293,3.5 C293,5.15685425 294.343146,6.5 296,6.5 Z" id="Oval-2" fill="#4A4A4A" sketch:type="MSShapeGroup"></path>
                <path d="M0.133121058,3.59659958 L292.133118,3.59659958" id="Line-8" stroke-linecap="square" sketch:type="MSShapeGroup"></path>
                <path id="Line-8-decoration-1" d="M280.333121,6.59659958 C284.113121,5.54659958 287.353121,4.64659958 291.133121,3.59659958 C287.353121,2.54659958 284.113121,1.64659958 280.333121,0.596599579" stroke-linecap="square"></path>
            </g>
            <path d="M563.366879,192.403399 C565.023733,192.403399 566.366879,191.060253 566.366879,189.403399 C566.366879,187.746544 565.023733,186.403399 563.366879,186.403399 C561.710025,186.403399 560.366879,187.746544 560.366879,189.403399 C560.366879,191.060253 561.710025,192.403399 563.366879,192.403399 Z" id="Oval-2" stroke="#4A4A4A" fill="#4A4A4A" sketch:type="MSShapeGroup"></path>
            <path d="M500,159.5 C501.656854,159.5 503,158.156854 503,156.5 C503,154.843146 501.656854,153.5 500,153.5 C498.343146,153.5 497,154.843146 497,156.5 C497,158.156854 498.343146,159.5 500,159.5 Z" id="Oval-13" stroke="#4A4A4A" fill="#4A4A4A" sketch:type="MSShapeGroup"></path>
            <path d="M567.5,189.499998 L859.499997,189.499998" id="Line-8" stroke="#4A4A4A" stroke-linecap="square" sketch:type="MSShapeGroup"></path>
            <path id="Line-8-decoration-1" d="M579.1,192.499998 C575.32,191.449998 572.08,190.549998 568.3,189.499998 C572.08,188.449998 575.32,187.549998 579.1,186.499998" stroke="#4A4A4A" stroke-linecap="square"></path>
            <path d="M620.038695,439.5 C621.695549,439.5 623.038695,438.156854 623.038695,436.5 C623.038695,434.843146 621.695549,433.5 620.038695,433.5 C618.38184,433.5 617.038695,434.843146 617.038695,436.5 C617.038695,438.156854 618.38184,439.5 620.038695,439.5 Z" id="Oval-2" stroke="#4A4A4A" fill="#4A4A4A" sketch:type="MSShapeGroup"></path>
            <path d="M919.960846,206.36084 C921.617701,206.36084 922.960846,205.017694 922.960846,203.36084 C922.960846,201.703986 921.617701,200.36084 919.960846,200.36084 C918.303992,200.36084 916.960846,201.703986 916.960846,203.36084 C916.960846,205.017694 918.303992,206.36084 919.960846,206.36084 Z" id="Oval-3" stroke="#4A4A4A" fill="#4A4A4A" sketch:type="MSShapeGroup" transform="translate(919.960846, 203.360840) rotate(156.000000) translate(-919.960846, -203.360840) "></path>
            <path d="M704,603 C705.656854,603 707,601.656854 707,600 C707,598.343146 705.656854,597 704,597 C702.343146,597 701,598.343146 701,600 C701,601.656854 702.343146,603 704,603 Z" id="Oval-4" stroke="#4A4A4A" fill="#4A4A4A" sketch:type="MSShapeGroup" transform="translate(704.000000, 600.000000) rotate(180.000000) translate(-704.000000, -600.000000) "></path>
            <text id="hasDefaultParam" sketch:type="MSTextLayer" font-family="Cambria" font-size="12" font-weight="normal" fill="#4A4A4A">
                <tspan x="832" y="289">hadEntity</tspan>
            </text>
            <text id="hasDefaultParam-2" sketch:type="MSTextLayer" font-family="Cambria" font-size="12" font-weight="normal" fill="#4A4A4A">
                <tspan x="824" y="380.096601">hasDefaultParam</tspan>
            </text>
            <path d="M700,460 L920.062503,460 L920.062503,205" id="Path-71" stroke="#4A4A4A" sketch:type="MSShapeGroup"></path>
            <path id="Path-71-decoration-1" d="M923.062503,215.862503 C922.012503,212.082503 921.112503,208.842503 920.062503,205.062503 C919.012503,208.842503 918.112503,212.082503 917.062503,215.862503" stroke="#4A4A4A"></path>
            <path d="M840,320 L890.062503,320 L890.062503,205" id="Path-73" stroke="#4A4A4A" sketch:type="MSShapeGroup"></path>
            <path id="Path-73-decoration-1" d="M893.062503,215.862503 C892.012503,212.082503 891.112503,208.842503 890.062503,205.062503 C889.012503,208.842503 888.112503,212.082503 887.062503,215.862503" stroke="#4A4A4A"></path>
            <path d="M540.202148,200.240723 L540.202148,230.080811 L680.157715,230.080811 L680.157719,319.920905 L713.5,320" id="Path-52" stroke="#4A4A4A" sketch:type="MSShapeGroup"></path>
            <path id="Path-52-decoration-1" d="M701.714793,322.972051 C705.497273,321.931021 708.739399,321.03871 712.521879,319.99768 C708.74438,318.938716 705.506524,318.031032 701.729026,316.972068" stroke="#4A4A4A"></path>
            <path d="M460.202637,200.105957 L460.078125,229.964844 L320.3749,229.964844 L319.999998,320 L286.69751,320" id="Path-53" stroke="#4A4A4A" sketch:type="MSShapeGroup"></path>
            <path id="Path-53-decoration-1" d="M298.398306,317 C294.618306,318.05 291.378306,318.95 287.598306,320 C291.378306,321.05 294.618306,321.95 298.398306,323" stroke="#4A4A4A"></path>
            <path d="M440.129883,180.041992 L146.283189,180.041992" id="Path-55" stroke="#4A4A4A" sketch:type="MSShapeGroup"></path>
            <path id="Path-55-decoration-1" d="M157.929883,177.041992 C154.149883,178.091992 150.909883,178.991992 147.129883,180.041992 C150.909883,181.091992 154.149883,181.991992 157.929883,183.041992" stroke="#4A4A4A"></path>
            <path d="M160,320.077471 L80,320.077471 L80,207.094401" id="Path-50" stroke="#4A4A4A" sketch:type="MSShapeGroup"></path>
            <path id="Path-50-decoration-1" d="M83,218.877471 C81.95,215.097471 81.05,211.857471 80,208.077471 C78.95,211.857471 78.05,215.097471 77,218.877471" stroke="#4A4A4A"></path>
            <path d="M500.142904,341.023763 L500.142904,389.998702 L619.999997,389.9987 L619.999997,433.99442" id="Path-50" stroke="#4A4A4A" sketch:type="MSShapeGroup"></path>
            <path id="Path-50-decoration-1" d="M616.999997,422.366668 C618.049997,426.146668 618.949997,429.386668 619.999997,433.166668 C621.049997,429.386668 621.949997,426.146668 622.999997,422.366668" stroke="#4A4A4A"></path>
            <path d="M340.219727,480.207031 L340.219727,510.137024 L410.057129,510.137024 L410.057129,486.152832" id="Path-49" stroke="#4A4A4A" sketch:type="MSShapeGroup"></path>
            <path id="Path-49-decoration-1" d="M413.057129,497.704419 C412.007129,493.924419 411.107129,490.684419 410.057129,486.904419 C409.007129,490.684419 408.107129,493.924419 407.057129,497.704419" stroke="#4A4A4A"></path>
            <path d="M410.125732,440.049561 L410.125732,409.93725 L340,409.93725 L340,433.954223" id="Path-48" stroke="#4A4A4A" sketch:type="MSShapeGroup"></path>
            <path id="Path-48-decoration-1" d="M337,422.899206 C338.05,426.679206 338.95,429.919206 340,433.699206 C341.05,429.919206 341.95,426.679206 343,422.899206" stroke="#4A4A4A"></path>
            <path d="M140.071733,470.028232 L294.012266,470.028232" id="Path-43" stroke="#4A4A4A" sketch:type="MSShapeGroup"></path>
            <path id="Path-43-decoration-1" d="M282.271733,473.028232 C286.051733,471.978232 289.291733,471.078232 293.071733,470.028232 C289.291733,468.978232 286.051733,468.078232 282.271733,467.028232" stroke="#4A4A4A"></path>
            <path d="M300.109701,449.979492 L146.101876,449.979492" id="Path-44" stroke="#4A4A4A" sketch:type="MSShapeGroup"></path>
            <path id="Path-44-decoration-1" d="M156.909701,446.979492 C153.129701,448.029492 149.889701,448.929492 146.109701,449.979492 C149.889701,451.029492 153.129701,451.929492 156.909701,452.979492" stroke="#4A4A4A"></path>
            <path d="M80,580 L80.1200449,531.219792 L300.062503,531.219792 L300,480" id="Path-45" stroke="#4A4A4A" sketch:type="MSShapeGroup"></path>
            <path id="Path-45-decoration-1" d="M83.0285377,568.407418 C81.9692385,572.184822 81.0612679,575.422598 80.0019687,579.200002 C78.9612742,575.41743 78.0692504,572.175225 77.0285558,568.392652" stroke="#4A4A4A"></path>
            <path d="M220,340 L220,390.09071 L320.000002,390.09071 L320.000002,434.026474" id="Path-45" stroke="#4A4A4A" sketch:type="MSShapeGroup"></path>
            <path id="Path-45-decoration-1" d="M317.000002,423.199998 C318.050002,426.979998 318.950002,430.219998 320.000002,433.999998 C321.050002,430.219998 321.950002,426.979998 323.000002,423.199998" stroke="#4A4A4A"></path>
            <path d="M550.089863,160.120175 L550.089863,129.95868 L500.079149,129.95868 L500.079149,154.030175" id="Path-40" stroke="#4A4A4A" sketch:type="MSShapeGroup"></path>
            <path id="Path-40-decoration-1" d="M497.079149,142.98647 C498.129149,146.76647 499.029149,150.00647 500.079149,153.78647 C501.129149,150.00647 502.029149,146.76647 503.079149,142.98647" stroke="#4A4A4A"></path>
            <path d="M920,159.5 C921.656854,159.5 923,158.156854 923,156.5 C923,154.843146 921.656854,153.5 920,153.5 C918.343146,153.5 917,154.843146 917,156.5 C917,158.156854 918.343146,159.5 920,159.5 Z" id="Oval-15" stroke="#4A4A4A" fill="#4A4A4A" sketch:type="MSShapeGroup"></path>
            <path d="M900,159.5 C901.656854,159.5 903,158.156854 903,156.5 C903,154.843146 901.656854,153.5 900,153.5 C898.343146,153.5 897,154.843146 897,156.5 C897,158.156854 898.343146,159.5 900,159.5 Z" id="Oval-16" stroke="#4A4A4A" fill="#4A4A4A" sketch:type="MSShapeGroup"></path>
            <path d="M970.089863,160.120175 L970.089863,129.95868 L920.079149,129.95868 L920.079149,154.030175" id="Path-42" stroke="#4A4A4A" sketch:type="MSShapeGroup"></path>
            <path id="Path-42-decoration-1" d="M917.079149,142.98647 C918.129149,146.76647 919.029149,150.00647 920.079149,153.78647 C921.129149,150.00647 922.029149,146.76647 923.079149,142.98647" stroke="#4A4A4A"></path>
            <path d="M440,159.5 C441.656854,159.5 443,158.156854 443,156.5 C443,154.843146 441.656854,153.5 440,153.5 C438.343146,153.5 437,154.843146 437,156.5 C437,158.156854 438.343146,159.5 440,159.5 Z" id="Oval-14" stroke="#4A4A4A" fill="#4A4A4A" sketch:type="MSShapeGroup"></path>
            <path d="M490.089863,160.120175 L490.089863,129.95868 L440.079149,129.95868 L440.079149,154.030175" id="Path-41" stroke="#4A4A4A" sketch:type="MSShapeGroup"></path>
            <path id="Path-41-decoration-1" d="M437.079149,142.98647 C438.129149,146.76647 439.029149,150.00647 440.079149,153.78647 C441.129149,150.00647 442.029149,146.76647 443.079149,142.98647" stroke="#4A4A4A"></path>
            <path d="M900,60 L900,154" id="Path-38" stroke="#4A4A4A" sketch:type="MSShapeGroup"></path>
            <path id="Path-38-decoration-1" d="M897,143.2 C898.05,146.98 898.95,150.22 900,154 C901.05,150.22 901.95,146.98 903,143.2" stroke="#4A4A4A"></path>
            <path d="M780,341.346806 L779.999999,389.784111 L670,389.784111 L670,432.346806" id="Path-35" stroke="#4A4A4A" sketch:type="MSShapeGroup"></path>
            <path id="Path-35-decoration-1" d="M667,420.546807 C668.05,424.326807 668.95,427.566807 670,431.346807 C671.05,427.566807 671.95,424.326807 673,420.546807" stroke="#4A4A4A"></path>
        </g>
    </g>
</svg>